<svg xmlns="http://www.w3.org/2000/svg"><defs><font id="ClashGroteskSemibold" horiz-adv-x="589"><font-face font-family="ClashGroteskSemibold" font-weight="600" ascent="800" descent="-200" x-height="503" cap-height="670" bbox="-185 -229 1619 890" underline-thickness="104" underline-position="-192" unicode-range="U+000D-FB04"/><glyph glyph-name="f_f" unicode="ff" horiz-adv-x="671" d="M227 0H77v379H4v124h74q7 81 61 125t153 44q31 0 47-2V558h-62q-29 0-42.5-10.5T221 512v-9h180q7 81 61 125t153 44q31 0 47-2V558h-62q-29 0-42.5-10.5T544 512v-9h118V379H550V0H400v379H227V0z"/><glyph glyph-name="fi" unicode="fi" horiz-adv-x="574" d="M227 0H77v379H4v124h74q7 81 61 125t153 44q31 0 47-2V558h-62q-29 0-42.5-10.5T221 512v-9h118V379H227V0zm306 560H386l-2 110h149V560zm3-560H386v503h150V0z"/><glyph glyph-name="fl" unicode="fl" horiz-adv-x="592" d="M227 0H77v379H4v124h74q7 81 61 125t153 44q31 0 47-2V558h-62q-29 0-42.5-10.5T221 512v-9h118V379H227V0zm318 0H396v670h149V0z"/><glyph glyph-name="f_f_i" unicode="ffi" horiz-adv-x="897" d="M227 0H77v379H4v124h74q7 81 61 125t153 44q31 0 47-2V558h-62q-29 0-42.5-10.5T221 512v-9h180q7 81 61 125t153 44q31 0 47-2V558h-62q-29 0-42.5-10.5T544 512v-9h118V379H550V0H400v379H227V0zm629 560H709l-2 110h149V560zm3-560H709v503h150V0z"/><glyph glyph-name="f_f_l" unicode="ffl" horiz-adv-x="914" d="M227 0H77v379H4v124h74q7 81 61 125t153 44q31 0 47-2V558h-62q-29 0-42.5-10.5T221 512v-9h180q7 81 61 125t153 44q31 0 47-2V558h-62q-29 0-42.5-10.5T544 512v-9h118V379H550V0H400v379H227V0zm641 0H719v670h149V0z"/><glyph glyph-name="f_t" unicode="ft" horiz-adv-x="704" d="M227 0H77v379H4v124h74q7 81 61 125t153 44q31 0 47-2V558h-62q-29 0-42.5-10.5T221 512v-9h171l28 117h118V503h142V379H538V182q0-32 15-40.5t65-8.5h62V8Q632-2 582-2 482-2 435 37.5T388 165v214H227V0z"/><glyph glyph-name="f_b" unicode="fb" horiz-adv-x="943" d="M227 0H77v379H4v124h74q7 81 61 125t153 44q31 0 47-2V558h-62q-29 0-42.5-10.5T221 512v-9h118V379H227V0zm308 0H396v670h149V433h6q19 34 59 57t94 23q102 0 156.5-70T915 251q0-121-54.5-191T705-10q-123 0-165 84h-5V0zm10 211q0-49 28-71t83-22q62 0 86 31t24 102q0 72-23.5 103T656 385q-55 0-83-22t-28-71v-81z"/><glyph glyph-name="f_f_b" unicode="ffb" horiz-adv-x="1266" d="M227 0H77v379H4v124h74q7 81 61 125t153 44q31 0 47-2V558h-62q-29 0-42.5-10.5T221 512v-9h180q7 81 61 125t153 44q31 0 47-2V558h-62q-29 0-42.5-10.5T544 512v-9h118V379H550V0H400v379H227V0zm631 0H719v670h149V433h6q19 34 59 57t94 23q102 0 156.5-70t54.5-192q0-121-54.5-191T1028-10q-123 0-165 84h-5V0zm10 211q0-49 28-71t83-22q62 0 86 31t24 102q0 72-23.5 103T979 385q-55 0-83-22t-28-71v-81z"/><glyph glyph-name="f_f_h" unicode="ffh" horiz-adv-x="1262" d="M227 0H77v379H4v124h74q7 81 61 125t153 44q31 0 47-2V558h-62q-29 0-42.5-10.5T221 512v-9h180q7 81 61 125t153 44q31 0 47-2V558h-62q-29 0-42.5-10.5T544 512v-9h118V379H550V0H400v379H227V0zm641 0H719v670h149V425h6q22 38 63.5 63t98.5 25q93 0 138.5-54t45.5-140V0h-150v289q0 53-21.5 74T971 384q-55 0-79-22t-24-78V0z"/><glyph glyph-name="f_f_j" unicode="ffj" horiz-adv-x="919" d="M227 0H77v379H4v124h74q7 81 61 125t153 44q31 0 47-2V558h-62q-29 0-42.5-10.5T221 512v-9h180q7 81 61 125t153 44q31 0 47-2V558h-62q-29 0-42.5-10.5T544 512v-9h118V379H550V0H400v379H227V0zm646 560H723v110h150V560zM626-168v126h40q37 0 47 8t10 36v501h150V25q0-108-52-151.5T669-170q-17 0-43 2z"/><glyph glyph-name="f_f_k" unicode="ffk" horiz-adv-x="1226" d="M227 0H77v379H4v124h74q7 81 61 125t153 44q31 0 47-2V558h-62q-29 0-42.5-10.5T221 512v-9h180q7 81 61 125t153 44q31 0 47-2V558h-62q-29 0-42.5-10.5T544 512v-9h118V379H550V0H400v379H227V0zm641 0H719v670h149V317h74l114 186h172l-164-240L1227 0h-172L945 183h-77V0z"/><glyph glyph-name="f_h" unicode="fh" horiz-adv-x="940" d="M227 0H77v379H4v124h74q7 81 61 125t153 44q31 0 47-2V558h-62q-29 0-42.5-10.5T221 512v-9h118V379H227V0zm318 0H396v670h149V425h6q22 38 63.5 63t98.5 25q93 0 138.5-54T897 319V0H747v289q0 53-21.5 74T648 384q-55 0-79-22t-24-78V0z"/><glyph glyph-name="f_j" unicode="fj" horiz-adv-x="596" d="M227 0H77v379H4v124h74q7 81 61 125t153 44q31 0 47-2V558h-62q-29 0-42.5-10.5T221 512v-9h118V379H227V0zm323 560H400v110h150V560zM303-168v126h40q37 0 47 8t10 36v501h150V25q0-108-52-151.5T346-170q-17 0-43 2z"/><glyph glyph-name="f_k" unicode="fk" horiz-adv-x="904" d="M227 0H77v379H4v124h74q7 81 61 125t153 44q31 0 47-2V558h-62q-29 0-42.5-10.5T221 512v-9h118V379H227V0zm318 0H396v670h149V317h74l114 186h172L741 263 904 0H732L622 183h-77V0z"/><glyph glyph-name=".notdef" horiz-adv-x="598" d="M49 0v650h502V0H49zm87 595 164-226 164 226H136zm-32-44V99l164 226zm228-226L496 99v452zM136 55h328L300 281z"/><glyph glyph-name=".null" horiz-adv-x="0"/><glyph glyph-name="nonmarkingreturn" horiz-adv-x="333"/><glyph glyph-name="CR" horiz-adv-x="300"/><glyph glyph-name="space" horiz-adv-x="190"/><glyph glyph-name="exclam" unicode="!" horiz-adv-x="294" d="M222 220H72q0 42-10.5 192T51 600v70h193v-70q0-38-11-188.5T222 220zM233 0H62v163h171V0z"/><glyph glyph-name="quotedbl" unicode="&quot;" horiz-adv-x="453" d="M380 381h-92l-31 145v144h155V526zm-216 0H73L41 526v144h155V526z"/><glyph glyph-name="numbersign" unicode="#" horiz-adv-x="848" d="M234 0H83l52 138H40v134h141l36 98H85v134h186l63 166h151l-63-166h138l63 166h151l-62-166h99V370H666l-37-98h137V138H576L523 0H373l51 138H286zm126 381-44-120h171l44 120H360z"/><glyph glyph-name="dollar" unicode="$" horiz-adv-x="619" d="M390-100H251v96Q47 25 47 218v13h147v-10q0-56 29-75.5T342 126q62 0 84 13.5t22 48.5q0 36-18.5 51T344 265l-118 21Q44 317 44 477q0 75 51.5 130.5T251 676v94h139v-97q97-17 144.5-76.5T582 448v-8H434v11q0 53-27 73t-101 20q-63 0-88-14.5T193 483t18-44.5 78-23.5l119-23q189-36 189-199 0-78-50.5-133T390-7v-93z"/><glyph glyph-name="percent" unicode="%" horiz-adv-x="791" d="M194 348q-81 0-128.5 44.5T18 514t47.5 121.5T194 680t128-44.5T369 514t-47-121.5T194 348zM223 0H86l483 670h136zm-29 450q36 0 49.5 13t13.5 51-13.5 51-49.5 13-49.5-13-13.5-51 13.5-51 49.5-13zM598-10q-81 0-128.5 44.5T422 156t47.5 121.5T598 322t128-44.5T773 156 726 34.5 598-10zm0 102q36 0 49.5 13t13.5 51-13.5 51-49.5 13-49.5-13-13.5-51 13.5-51T598 92z"/><glyph glyph-name="ampersand" unicode="&amp;" horiz-adv-x="694" d="M289 544q-37 0-54.5-15.5T217 474t17.5-53.5T289 406h145v91h148v-91h102V283H582v-58q0-115-65-175T306-10Q40-10 40 184q0 72 40 113t105 50v5q-56 7-86.5 49T68 503q0 178 234 178h101V544H289zm25-417q73 0 96.5 19.5T434 225v58H286q-47 0-70.5-16.5T192 202q0-45 25.5-60t96.5-15z"/><glyph glyph-name="quotesingle" unicode="'" horiz-adv-x="237" d="M164 381H73L41 526v144h155V526z"/><glyph glyph-name="parenleft" unicode="(" horiz-adv-x="351" d="m333 2-76-74Q161 9 102.5 105.5T44 335t58.5 229.5T257 742l76-74q-80-87-102-150.5T209 335t22-182.5T333 2z"/><glyph glyph-name="parenright" unicode=")" horiz-adv-x="351" d="m16 668 76 74q96-81 154.5-177.5T305 335t-58.5-229.5T92-72L16 2q80 87 102 150.5T140 335t-22 182.5T16 668z"/><glyph glyph-name="asterisk" unicode="*" horiz-adv-x="452" d="m211 422-54-86-87 63 65 78-3 9-98 25 33 102 96-40 7 7-7 101h107l-7-101 7-7 95 39 32-102-98-24-3-9 65-78-87-64-53 87h-10z"/><glyph glyph-name="plus" unicode="+" horiz-adv-x="505" d="M317 112H189v161H29v124h160v161h128V397h159V273H317V112z"/><glyph glyph-name="comma" unicode="," horiz-adv-x="252" d="M86-148H36v98h46q16 0 23 6.5t7 25.5V0H32v177h188V-16q0-132-134-132z"/><glyph glyph-name="hyphen" unicode="-" horiz-adv-x="412" d="M392 231H20v128h372V231z"/><glyph glyph-name="period" unicode="." horiz-adv-x="252" d="M220 0H32v177h188V0z"/><glyph glyph-name="slash" unicode="/" horiz-adv-x="474" d="M138-20H-20l360 710h158z"/><glyph glyph-name="zero" unicode="0" horiz-adv-x="705" d="M353-10q-143 0-222 93T52 335q0 158 79 251.5T353 680q142 0 221-93.5T653 335q0-159-79-252T353-10zm0 145q78 0 109 41.5T493 335t-31 158.5T353 535q-79 0-110-41.5T212 335t31-158.5T353 135z"/><glyph glyph-name="one" unicode="1" horiz-adv-x="362" d="M316 0H167v480H16v107h30q48 0 79 19t55 64h136V0z"/><glyph glyph-name="two" unicode="2" horiz-adv-x="633" d="M578 0H54v90q0 47 14 83.5t42.5 63.5 56 44.5T235 319l116 55q45 21 62.5 41.5T431 468q0 39-24 57t-87 18q-70 0-93.5-21.5T203 444v-17H53v16q0 105 69 171t210 66q127 0 187.5-57T580 469q0-79-46-129t-123-85l-101-44q-49-22-72.5-39T214 133l108 2h256V0z"/><glyph glyph-name="three" unicode="3" horiz-adv-x="623" d="M313-10q-146 0-211.5 55.5T36 205v22h147v-20q0-47 25.5-63T313 128q66 0 95 16t29 60q0 47-21 63t-72 16H203v122h125q47 0 65 13.5t18 52.5q0 38-26.5 54.5T303 542q-67 0-93.5-17T183 463v-9H36v11q0 100 71.5 157.5T307 680q120 0 187-46t67-135q0-129-126-143v-6q73-7 113.5-50T589 184q0-95-73-144.5T313-10z"/><glyph glyph-name="four" unicode="4" horiz-adv-x="652" d="M538 0H388v127H10v105l354 438h174V262h96V127h-96V0zM199 262h189v226h-9L199 272v-10z"/><glyph glyph-name="five" unicode="5" horiz-adv-x="656" d="M326-10q-133 0-202 53.5T55 192v8h149v-8q0-36 30.5-50.5T333 127q71 0 99.5 21t28.5 72q0 52-29.5 73T331 314q-80 0-138-34L60 298l20 372h492V535H213l-11-146h4q56 52 175 52 110 0 168.5-57.5T608 225q0-109-68.5-172T326-10z"/><glyph glyph-name="six" unicode="6" horiz-adv-x="654" d="M343-10q-157 0-224 87T52 346q0 162 76 248t223 86q116 0 182-57t66-155v-8H440v6q0 37-25.5 53T331 535q-72 0-98-33t-26-108v-58h5q51 78 182 78 109 0 165.5-53T616 211q0-103-70.5-162T343-10zm2 144q70 0 97 18t27 62q0 43-27 61t-97 18-97.5-18-27.5-61q0-44 27.5-62t97.5-18z"/><glyph glyph-name="seven" unicode="7" horiz-adv-x="558" d="M282-1H118q0 83 16.5 158T175 285.5 235 389t64.5 80 64.5 61v5H18v135h522V546Q400 417 341 293T282-1z"/><glyph glyph-name="eight" unicode="8" horiz-adv-x="628" d="M313-10q-138 0-211.5 49T28 185q0 68 37 108.5t93 56.5v6q-48 8-78 46.5T50 499q0 83 66.5 132T314 680t197.5-49T578 499q0-58-30-96.5T470 356v-6q56-16 93-56.5T600 185q0-97-74-146T313-10zm1 406q63 0 88.5 17.5T428 470t-25.5 56.5T314 544q-64 0-89.5-17.5T199 470t25.5-56.5T314 396zm0-271q78 0 106 19.5t28 65.5-28 65-106 19q-79 0-106.5-19T180 210t28-65.5T314 125z"/><glyph glyph-name="nine" unicode="9" horiz-adv-x="654" d="M330-10q-118 0-186 58T76 203v6h159v-6q0-37 24.5-53.5T340 133q71 0 95.5 31T460 276v58h-5q-53-78-183-78-108 0-164.5 53T51 459q0 103 70.5 162T324 680q158 0 224.5-83T615 332q0-342-285-342zm-7 387q70 0 97 18t27 61q0 44-27 62t-97 18q-71 0-98-18t-27-62q0-43 27-61t98-18z"/><glyph glyph-name="colon" unicode=":" horiz-adv-x="252" d="M228 325H40v177h188V325zm0-325H40v177h188V0z"/><glyph glyph-name="semicolon" unicode=";" horiz-adv-x="252" d="M228 325H40v177h188V325zM94-148H44v98h46q16 0 23 6.5t7 25.5V0H40v177h188V-16q0-132-134-132z"/><glyph glyph-name="less" unicode="&lt;" horiz-adv-x="506" d="m19 424 447 141V425l-312-85v-10l312-85V105L19 246v178z"/><glyph glyph-name="equal" unicode="=" horiz-adv-x="505" d="M476 396H29v123h447V396zm0-245H29v123h447V151z"/><glyph glyph-name="greater" unicode="&gt;" horiz-adv-x="506" d="M476 246 29 105v140l312 85v10L29 425v140l447-141V246z"/><glyph glyph-name="question" unicode="?" horiz-adv-x="577" d="M327 224H177v22q0 49 19.5 76t66.5 49l59 29q43 20 59 34t16 43q0 35-21.5 51T296 544q-67 0-93-19t-26-65v-16H30v15q0 97 68.5 159T303 680q124 0 183.5-54T546 483q0-117-129-174l-56-24q-20-9-27-19t-7-27v-15zM339 0H168v163h171V0z"/><glyph glyph-name="at" unicode="@" horiz-adv-x="933" d="M413 42q-77 0-116 56t-39 147q0 90 42 146.5T418 448q83 0 113-75h5v67h130V196q0-43 43-43 26 0 35.5 25t9.5 88q0 145-66.5 204.5T477 530q-151 0-218.5-64T191 244q0-151 64-212t205-61q56 0 130 24l31-114q-81-30-183-30-186 0-287 102.5T50 244q0 190 118 303.5T486 661q187 0 293-99.5T885 296q0-122-49.5-188.5T689 41q-116 0-151 79h-4q-33-78-121-78zm-16 203q0-51 15-72t53-21q33 0 47.5 14.5T527 215v59q0 34-14.5 49T465 338q-38 0-53-21.5T397 245z"/><glyph glyph-name="A" unicode="A" horiz-adv-x="716" d="M158 0H2l247 670h218L714 0H551l-54 149H213zm142 387-38-104h186l-38 104-49 151h-10z"/><glyph glyph-name="B" unicode="B" horiz-adv-x="650" d="M393 0H47v670h330q220 0 220-167 0-126-134-143v-10q79-6 120-51t41-115q0-86-59-135T393 0zM197 535V405h170q44 0 62 13.5t18 51.5q0 39-18 52t-62 13H197zm0-252V135h191q45 0 65 14.5t20 58.5q0 46-19.5 60.5T388 283H197z"/><glyph glyph-name="C" unicode="C" horiz-adv-x="690" d="M353-10q-150 0-235.5 93.5T32 335t85.5 251.5T353 680q147 0 226-72t79-198v-9H498v5q0 72-33 100.5T352 535q-88 0-124-42t-36-158 36-158 124-42q80 0 113 28.5T498 264v5h160v-9q0-126-79-198T353-10z"/><glyph glyph-name="D" unicode="D" horiz-adv-x="678" d="M303 0H47v670h256q162 0 254.5-89T650 335 557.5 89 303 0zm-2 535H197V135h104q105 0 146.5 42T489 335t-41.5 158T301 535z"/><glyph glyph-name="E" unicode="E" horiz-adv-x="596" d="M558 0H47v670h511V535H197V404h346V270H197V135h361V0z"/><glyph glyph-name="F" unicode="F" horiz-adv-x="576" d="M197 0H47v670h503V535H197V382h338V248H197V0z"/><glyph glyph-name="G" unicode="G" horiz-adv-x="711" d="M325-10q-143 0-220 91.5T28 335q0 158 87 251.5T354 680q147 0 226.5-68T660 423v-5H501v4q0 63-34 88t-116 25q-89 0-126-42.5T188 335q0-117 39.5-159.5T365 133q83 0 118 20t35 78H335v125h327V0H523v102h-6q-18-46-64.5-79T325-10z"/><glyph glyph-name="H" unicode="H" horiz-adv-x="686" d="M197 0H47v670h150V404h292v266h150V0H489v270H197V0z"/><glyph glyph-name="I" unicode="I" horiz-adv-x="244" d="M197 0H47v670h150V0z"/><glyph glyph-name="J" unicode="J" horiz-adv-x="585" d="M280-10Q138-10 73.5 58.5T9 257v20h159v-27q0-68 19.5-91.5T275 135q67 0 86.5 23.5T381 250v420h160V263q0-273-261-273z"/><glyph glyph-name="K" unicode="K" horiz-adv-x="653" d="M197 0H47v670h150V403h127l157 267h170L449 338 648 0H476L326 258H197V0z"/><glyph glyph-name="L" unicode="L" horiz-adv-x="561" d="M543 0H47v670h150V135h346V0z"/><glyph glyph-name="M" unicode="M" horiz-adv-x="862" d="M197 0H47v670h211l117-313 54-172h10l53 172 112 313h211V0H665v317l8 129h-11l-39-131L522 46H340L239 315l-40 131h-10l8-129V0z"/><glyph glyph-name="N" unicode="N" horiz-adv-x="685" d="M197 0H47v670h160l217-336 56-90h10l-2 90v336h150V0H478L270 317l-65 103h-10l2-103V0z"/><glyph glyph-name="O" unicode="O" horiz-adv-x="707" d="M354-10q-149 0-235.5 93.5T32 335t86.5 251.5T354 680t235-93.5T675 335 589 83.5 354-10zm0 145q89 0 125 42.5T515 335t-36 157.5T354 535t-125.5-42.5T192 335t36.5-157.5T354 135z"/><glyph glyph-name="P" unicode="P" horiz-adv-x="619" d="M197 0H47v670h308q110 0 178.5-63T602 434t-68-172.5T355 199H197V0zm164 535H197V333h164q53 0 72.5 21t19.5 80q0 60-19.5 80.5T361 535z"/><glyph glyph-name="Q" unicode="Q" horiz-adv-x="707" d="M354-10q-149 0-235.5 93.5T32 335t86.5 251.5T354 680t235-93.5T675 335q0-110-43-190.5T511 24l118-165H435L355-10h-1zm0 145q89 0 125 42.5T515 335t-36 157.5T354 535t-125.5-42.5T192 335t36.5-157.5T354 135z"/><glyph glyph-name="R" unicode="R" horiz-adv-x="640" d="M197 0H47v670h308q120 0 184.5-53T604 466q0-169-169-184v-10q41-13 66-37.5t46-66.5L632 0H457l-79 155q-25 48-48 65.5T257 238h-60V0zm0 535V362h165q53 0 73 19t20 68q0 48-20.5 67T362 535H197z"/><glyph glyph-name="S" unicode="S" horiz-adv-x="619" d="M335-10Q47-10 47 218v13h147v-10q0-56 29-75.5T342 126q62 0 84 13.5t22 48.5q0 36-18.5 51T344 265l-118 21Q44 317 44 477q0 85 66.5 144T311 680q137 0 204-63t67-169v-8H434v11q0 53-27 73t-101 20q-63 0-88-14.5T193 483t18-44.5 78-23.5l119-23q189-36 189-199 0-88-64-145.5T335-10z"/><glyph glyph-name="T" unicode="T" horiz-adv-x="586" d="M368 0H218v535H2v135h582V535H368V0z"/><glyph glyph-name="U" unicode="U" horiz-adv-x="675" d="M338-10q-144 0-219 71.5T44 261v409h149V263q0-72 31-100t114-28q82 0 113 28t31 100v407h150V261q0-128-75-199.5T338-10z"/><glyph glyph-name="V" unicode="V" horiz-adv-x="698" d="M449 0H249L6 670h169l171-502h10l168 502h168z"/><glyph glyph-name="W" unicode="W" horiz-adv-x="986" d="M363 0H143L8 670h174l51-302 24-221h11l41 221 79 302h213l79-300 42-223h11l24 223 51 300h170L843 0H624l-81 297-45 212h-10l-45-212z"/><glyph glyph-name="X" unicode="X" horiz-adv-x="702" d="M198 0H23l207 331v10L23 670h177l149-238h10l145 238h175L473 342v-10L679 0H502L353 239h-10z"/><glyph glyph-name="Y" unicode="Y" horiz-adv-x="668" d="M409 0H259v242L-2 670h170l105-176 58-99h10l57 99 105 176h167L409 242V0z"/><glyph glyph-name="Z" unicode="Z" horiz-adv-x="602" d="M582 0H20v124l344 401v10H39v135h529V546L221 145v-10h361V0z"/><glyph glyph-name="bracketleft" unicode="[" horiz-adv-x="313" d="M295-60H46v790h249V606H185V64h110V-60z"/><glyph glyph-name="backslash" horiz-adv-x="480" d="M500-20H340L-20 690h160z"/><glyph glyph-name="bracketright" unicode="]" horiz-adv-x="313" d="M2 64h110v542H2v124h249V-60H2V64z"/><glyph glyph-name="asciicircum" unicode="^" horiz-adv-x="527" d="M172 280H32l143 390h177l143-390H355l-86 254h-11z"/><glyph glyph-name="underscore" unicode="_" horiz-adv-x="380" d="M370-107H10V0h360v-107z"/><glyph glyph-name="grave" unicode="`" horiz-adv-x="600" d="M423 560H264L108 685v5h204l111-125v-5z"/><glyph glyph-name="a" unicode="a" horiz-adv-x="544" d="M185-10q-70 0-114 36T27 128q0 117 160 142l172 26v16q0 42-21.5 56T268 382q-46 0-65.5-15T183 314v-11H40v11q0 90 64.5 144.5T275 513q110 0 168-56.5T501 298V0H362v68h-6q-57-78-171-78zm-15 150q0-36 65-36 124 0 124 94l-144-22q-45-7-45-36z"/><glyph glyph-name="b" unicode="b" horiz-adv-x="593" d="M185 0H46v670h149V433h6q19 34 59 57t94 23q102 0 156.5-70T565 251q0-121-54.5-191T355-10q-123 0-165 84h-5V0zm10 211q0-49 28-71t83-22q62 0 86 31t24 102q0 72-23.5 103T306 385q-55 0-83-22t-28-71v-81z"/><glyph glyph-name="c" unicode="c" horiz-adv-x="551" d="M283-10Q160-10 94 59.5T28 250q0 122 69 192.5T291 513q102 0 167-57t65-149v-12H373v8q0 41-23 58.5T279 379q-55 0-79-29t-24-99q0-69 24-98t79-29q48 0 71 17.5t23 58.5v8h150v-12q0-92-67.5-149T283-10z"/><glyph glyph-name="d" unicode="d" horiz-adv-x="593" d="M246-10Q141-10 84.5 60T28 251q0 120 58 191t160 71q104 0 146-76h6v233h149V0H408v74h-5q-40-84-157-84zm-69 261q0-71 24-102t87-31q55 0 82.5 21.5T398 211v81q0 50-27.5 71.5T288 385q-63 0-87-31t-24-103z"/><glyph glyph-name="e" unicode="e" horiz-adv-x="553" d="M280-10Q154-10 91 58.5T28 250q0 121 68 192t185 71q112 0 176-60.5T521 292q0-34-7-74H169q2-53 27-75.5t86-22.5q86 0 86 44v6h148v-10q0-80-63.5-125T280-10zm-4 400q-52 0-76.5-20T170 309h207q2 39-23.5 60T276 390z"/><glyph glyph-name="f" unicode="f" horiz-adv-x="348" d="M227 0H77v379H4v124h74q7 81 61 125t153 44q31 0 47-2V558h-62q-29 0-42.5-10.5T221 512v-9h118V379H227V0z"/><glyph glyph-name="g" unicode="g" horiz-adv-x="593" d="M241 53q-103 0-158 61T28 282t57 169 162 62q115 0 156-83h5v73h139V56q0-236-249-236-118 0-181.5 50.5T53 17h149q0-40 19-52.5T303-48q59 0 77 18.5T398 48v78h-6q-18-31-57.5-52T241 53zm-64 229q0-55 24-79.5t86-24.5q111 0 111 89v30q0 47-27.5 68T288 386q-63 0-87-24.5T177 282z"/><glyph glyph-name="h" unicode="h" d="M195 0H46v670h149V425h6q22 38 63.5 63t98.5 25q93 0 138.5-54T547 319V0H397v289q0 53-21.5 74T298 384q-55 0-79-22t-24-78V0z"/><glyph glyph-name="i" unicode="i" horiz-adv-x="228" d="M187 560H40l-2 110h149V560zm3-560H40v503h150V0z"/><glyph glyph-name="j" unicode="j" horiz-adv-x="244" d="M198 560H48v110h150V560zM-49-168v126h40q37 0 47 8T48 2v501h150V25q0-108-52-151.5T-6-170q-17 0-43 2z"/><glyph glyph-name="k" unicode="k" horiz-adv-x="553" d="M195 0H46v670h149V317h74l114 186h172L391 263 554 0H382L272 183h-77V0z"/><glyph glyph-name="l" unicode="l" horiz-adv-x="241" d="M195 0H46v670h149V0z"/><glyph glyph-name="m" unicode="m" horiz-adv-x="921" d="M195 0H46v503h139v-88h6q46 98 165 98 121 0 163-98h5q50 98 171 98 92 0 137.5-54T878 319V0H728v289q0 53-20 74t-74 21q-52 0-74.5-20.5T537 289V0H387v289q0 53-20.5 74T293 384q-52 0-75-20.5T195 291V0z"/><glyph glyph-name="n" unicode="n" d="M195 0H46v503h139v-88h6q46 98 169 98 93 0 140-54t47-140V0H397v289q0 53-21.5 74T298 384q-55 0-79-21.5T195 285V0z"/><glyph glyph-name="o" unicode="o" horiz-adv-x="569" d="M286-10Q165-10 96.5 60.5T28 251q0 121 68.5 191.5T286 513q120 0 187.5-70.5T541 251q0-120-67.5-190.5T286-10zm0 132q61 0 85 28t24 101-24 101.5-85 28.5q-62 0-86-28.5T176 251t24-101 86-28z"/><glyph glyph-name="p" unicode="p" horiz-adv-x="593" d="M187-168H37v671h139v-74h5q42 84 160 84 105 0 160.5-70T557 251q0-120-56-190.5T344-10q-111 0-152 76h-5v-234zm0 379q0-50 27.5-71.5T297 118q63 0 86.5 31T407 251q0 72-23.5 103T297 385q-55 0-82.5-21.5T187 292v-81z"/><glyph glyph-name="q" unicode="q" horiz-adv-x="593" d="M245-10Q141-10 84.5 60T28 251t55.5 191.5T241 513q58 0 100.5-22t61.5-62h5v74h139v-671H398V66h-6q-41-76-147-76zm-68 261q0-71 24-102t87-31q55 0 82.5 21.5T398 211v81q0 50-27.5 71.5T288 385q-63 0-87-31t-24-103z"/><glyph glyph-name="r" unicode="r" horiz-adv-x="493" d="M195 0H46v503h139v-81h6q45 91 141 91 75 0 109.5-48.5T476 334v-46H327v27q0 40-14 55.5T263 386t-52-15.5-16-55.5V0z"/><glyph glyph-name="s" unicode="s" horiz-adv-x="505" d="M267-10Q32-10 32 171v3h143v-21q0-27 19.5-36t75.5-9q44 0 57.5 7t13.5 27-15 28-66 17l-76 14q-77 14-115 49.5T31 354q0 72 57 115.5T250 513q96 0 156.5-44.5T467 342v-14H324v14q0 27-16 39t-62 12q-43 0-58.5-9T172 356q0-18 12.5-26t56.5-17l92-19q79-15 114.5-51.5T483 144q0-71-56.5-112.5T267-10z"/><glyph glyph-name="t" unicode="t" horiz-adv-x="400" d="M278-2Q178-2 131 37.5T84 165v214H4v124h84l28 117h118V503h142V379H234V182q0-32 15-40.5t65-8.5h62V8Q328-2 278-2z"/><glyph glyph-name="u" unicode="u" d="M230-10q-94 0-140.5 54T43 184v319h149V214q0-53 21.5-74t77.5-21q55 0 79 21.5t24 77.5v285h149V0H404v88h-5q-47-98-169-98z"/><glyph glyph-name="v" unicode="v" horiz-adv-x="586" d="M388 0H197L2 503h167l120-359h11l120 359h164z"/><glyph glyph-name="w" unicode="w" horiz-adv-x="834" d="M321 0H125L8 503h165l33-232 19-151h11l28 151 61 232h191l62-233 27-150h10l18 150 35 233h158L709 0H513l-65 239-25 132h-11l-25-132z"/><glyph glyph-name="x" unicode="x" horiz-adv-x="563" d="M168 0H0l167 250v9L0 503h173l108-168h9l105 168h168L396 253v-10L563 0H389L282 167h-10z"/><glyph glyph-name="y" unicode="y" horiz-adv-x="579" d="M151-170q-46 0-92 11v124h84q30 0 43 7t24 30l9 19L8 503h167l82-210 36-97h11l31 97 71 210h167L349-35q-32-76-77-105.5T151-170z"/><glyph glyph-name="z" unicode="z" horiz-adv-x="547" d="M519 0H28v115l201 188 72 60-1 11-71-2H43v131h461V377L294 192l-63-52 1-10 62 1h225V0z"/><glyph glyph-name="braceleft" unicode="{" horiz-adv-x="344" d="M324-60h-12q-204 0-204 210v72q0 29-13 39t-49 10H18v128h28q36 0 49 10t13 39v72q0 210 204 210h12V585h-9q-45 0-56.5-16T247 501v-35q0-126-114-126v-10q114 0 114-126v-35q0-52 11.5-68T315 85h9V-60z"/><glyph glyph-name="bar" unicode="|" horiz-adv-x="192" d="M165-100H27v870h138v-870z"/><glyph glyph-name="braceright" unicode="}" horiz-adv-x="344" d="M20 730h12q204 0 204-210v-72q0-29 13-39t49-10h28V271h-28q-36 0-49-10t-13-39v-72Q236-60 32-60H20V85h9q45 0 56.5 16T97 169v35q0 126 114 126v10Q97 340 97 466v35q0 52-11.5 68T29 585h-9v145z"/><glyph glyph-name="asciitilde" unicode="~" horiz-adv-x="541" d="M151 242H26v53q0 135 120 135 35 0 84-17l71-27q44-17 66-17 23 0 23 24v28h125v-56q0-129-107-129-49 0-117 26l-65 23q-33 11-47 11-28 0-28-28v-26z"/><glyph glyph-name="nbspace" horiz-adv-x="190"/><glyph glyph-name="exclamdown" unicode="¡" horiz-adv-x="294" d="M61 500h171V337H61v163zm11-220h150q0-42 10.5-192T243-100v-70H50v70q0 38 11 188.5T72 280z"/><glyph glyph-name="cent" unicode="¢" horiz-adv-x="551" d="M350-100H211v97Q122 16 75 82T28 250q0 100 47.5 166.5T211 504v99h139v-96q78-15 125.5-68.5T523 307v-12H373v8q0 41-23 58.5T279 379q-55 0-79-29t-24-99q0-69 24-98t79-29q48 0 71 17.5t23 58.5v8h150v-12q0-76-47-129T350-3v-97z"/><glyph glyph-name="sterling" unicode="£" horiz-adv-x="619" d="M416 243H294q1-7 1-21 0-56-52-82v-5h347V0H40v135h42q39 0 59.5 17t20.5 46q0 21-7 45H37v123h56q-25 57-25 112 0 89 68.5 145.5T332 680q130 0 190-61.5T582 455v-18H435v17q0 51-22.5 70T326 543q-57 0-82.5-18T218 468q0-38 27-99l1-3h170V243z"/><glyph glyph-name="currency" unicode="¤" horiz-adv-x="604" d="M303 70q-89 0-151 42L65 33 10 93l84 76q-41 58-41 138t41 139l-84 76 55 60 87-79q62 42 151 42 88 0 150-42l86 79 55-60-84-76q40-60 40-139 0-80-40-138l84-76-55-60-86 79q-65-42-150-42zm0 132q54 0 77.5 25t23.5 80q0 56-23.5 81T303 413q-55 0-78.5-25T201 307q0-55 23.5-80t78.5-25z"/><glyph glyph-name="yen" unicode="¥" horiz-adv-x="743" d="M454 0H305v140H48v123h245l-43 70H48v124h126L44 670h169l127-212 36-84h11l36 84 126 212h167L585 457h127V333H509l-43-70h246V140H454V0z"/><glyph glyph-name="brokenbar" unicode="¦" horiz-adv-x="239" d="M189 375H50v395h139V375zm0-475H50v395h139v-395z"/><glyph glyph-name="section" unicode="§" horiz-adv-x="508" d="M265-10Q34-10 34 161v15h144v-19q0-26 16.5-37t64.5-11q46 0 62.5 8t16.5 26q0 16-12 23t-54 18l-136 39q-54 15-80.5 40T29 331q0 60 60 88v5q-59 30-59 105 0 69 57.5 110T249 680q101 0 158-44t57-127v-12H320v18q0 24-15.5 35T244 561q-43 0-58.5-8T170 527t12-25 57-20l134-39q53-16 79.5-40.5T479 338q0-64-60-93v-5q59-30 59-97 0-72-54-112.5T265-10zm-77 343 125-36q34-9 34 19 0 17-27 24l-125 36q-16 5-24.5-1t-8.5-17q0-16 26-25z"/><glyph glyph-name="dieresis" unicode="¨" horiz-adv-x="600" d="M466 560H318v132h148V560zm-208 0H111v132h147V560z"/><glyph glyph-name="copyright" unicode="©" horiz-adv-x="713" d="M356-6Q207-6 112 87.5T17 335t95 247.5T356 676t244.5-93.5T696 335 601 87.5 356-6zm0 105q115 0 169 53t54 183-54 183-169 53q-114 0-168.5-53T133 335t54.5-183T356 99zm5 55q-80 0-126 49t-46 132q0 84 46 132.5T361 516q73 0 118.5-42T525 363v-8H417v6q0 30-13.5 43T361 417q-36 0-50-17.5T297 335t14-64.5 50-17.5q29 0 42.5 13t13.5 43v6h108v-8q0-69-45.5-111T361 154z"/><glyph glyph-name="ordfeminine" unicode="ª" horiz-adv-x="233" d="M94 524q-53 0-53 40 0 36 55 42l54 6v3q0 22-25 22t-25-23v-2H45v3q0 29 23 47t60 18q38 0 57-17t19-47v-89h-51v23h-2q-14-26-57-26zm-1 44q0-9 20-9 36 0 36 23l-41-4q-15-2-15-10z"/><glyph glyph-name="guillemotleft" unicode="«" horiz-adv-x="500" d="m270 388 200 134V369l-99-59v-10l99-59V88L270 222v166zm-240 0 200 134V369l-99-59v-10l99-59V88L30 222v166z"/><glyph glyph-name="logicalnot" unicode="¬" horiz-adv-x="505" d="M486 151H358v184H29v124h457V151z"/><glyph glyph-name="softhyphen" unicode="­" horiz-adv-x="412" d="M392 231H20v128h372V231z"/><glyph glyph-name="registered" unicode="®" horiz-adv-x="400" d="M200 332q-81 0-131.5 48T18 507t50.5 127T200 682q80 0 130.5-48T381 507t-50.5-127T200 332zm0 57q66 0 93 27.5t27 90.5-27 90.5-93 27.5q-65 0-92-27t-27-91 27-91 92-27zm-21 48h-49v144h83q60 0 60-44 0-20-11.5-31.5T232 494v-2q15-5 27-24l19-31h-55l-18 29q-9 15-24 15h-2v-44zm0 103v-23h33q13 0 13 11 0 12-13 12h-33z"/><glyph glyph-name="macron" unicode="¯" horiz-adv-x="600" d="M436 572H129v105h307V572z"/><glyph glyph-name="degree" unicode="°" horiz-adv-x="232" d="M116 524q-39 0-62 21.5T31 602t23 56.5 62 21.5 62-21.5 23-56.5-23-56.5-62-21.5zm0 49q16 0 23 6.5t7 22.5-7 22.5-23 6.5-23-6.5-7-22.5 7-22.5 23-6.5z"/><glyph glyph-name="plusminus" unicode="±" horiz-adv-x="516" d="M476 19H29v123h171v131H40v124h160v161h127V397h160V273H327V142h149V19z"/><glyph glyph-name="twosuperior" unicode="²" horiz-adv-x="347" d="M320 340H17v48q0 46 25.5 74.5T119 510l50 18q45 17 51 27 3 4 3 10 0 27-46 27-56 0-56-34v-8H18v8q0 53 42 87.5T183 680q73 0 109-29t36-78q0-42-26.5-65.5T224 467l-77-25q-21-8-27-19l64 2h136v-85z"/><glyph glyph-name="threesuperior" unicode="³" horiz-adv-x="357" d="M183 335Q25 335 25 449v11h103v-10q0-18 10-25t41-7q28 0 37.5 6.5T226 449t-9 23-32 5h-48v72h41q20 0 27.5 4t7.5 17q0 15-8 21t-31 6q-27 0-36.5-6t-9.5-23v-5H25v4q0 53 40.5 83T181 680q138 0 138-90 0-60-77-70v-5q43-5 67-26.5t24-58.5q0-95-150-95z"/><glyph glyph-name="acute" unicode="´" horiz-adv-x="600" d="M307 560H148v5l111 125h204v-5z"/><glyph glyph-name="paragraph" unicode="¶" horiz-adv-x="690" d="M420 0H271v270h-6q-112 0-179 50.5T19 470t67 149.5T265 670h155V0zm222 0H492v670h150V0z"/><glyph glyph-name="periodcentered" unicode="·" horiz-adv-x="252" d="M228 250H40v177h188V250z"/><glyph glyph-name="cedilla" unicode="¸" horiz-adv-x="600" d="M278-229H176v79h100q28 0 28 18 0 11-6 14.5t-22 3.5h-76V3h79v-46h5q51 0 79.5-24.5T392-134q0-44-30-69.5T278-229z"/><glyph glyph-name="onesuperior" unicode="¹" horiz-adv-x="225" d="M211 335H105v211H20v83h11q59 0 80 41h100V335z"/><glyph glyph-name="ordmasculine" unicode="º" horiz-adv-x="232" d="M116 524q-39 0-62 21.5T31 602t23 56.5 62 21.5 62-21.5 23-56.5-23-56.5-62-21.5zm0 49q16 0 23 6.5t7 22.5-7 22.5-23 6.5-23-6.5-7-22.5 7-22.5 23-6.5z"/><glyph glyph-name="guillemotright" unicode="»" horiz-adv-x="500" d="M230 222 30 88v153l99 59v10l-99 59v153l200-134V222zm240 0L270 88v153l99 59v10l-99 59v153l200-134V222z"/><glyph glyph-name="onequarter" unicode="¼" horiz-adv-x="771" d="M235 335H129v211H44v83h11q59 0 80 41h100V335zM202 0H65l483 670h136zm495 0H591v65H402v83l177 187h118V159h48V65h-48V0zM513 159h78v79h-6l-72-74v-5z"/><glyph glyph-name="onehalf" unicode="½" horiz-adv-x="798" d="M235 335H129v211H44v83h11q59 0 80 41h100V335zM202 0H65l483 670h136zm560 0H459v48q0 46 25.5 74.5T561 170l50 18q45 17 51 27 3 4 3 10 0 27-46 27-56 0-56-34v-8H460v8q0 53 42 87.5T625 340q73 0 109-29t36-78q0-42-26.5-65.5T666 127l-77-25q-21-8-27-19l64 2h136V0z"/><glyph glyph-name="threequarters" unicode="¾" horiz-adv-x="833" d="M190 335Q32 335 32 449v11h103v-10q0-18 10-25t41-7q28 0 37.5 6.5T233 449t-9 23-32 5h-48v72h41q20 0 27.5 4t7.5 17q0 15-8 21t-31 6q-27 0-36.5-6t-9.5-23v-5H32v4q0 53 40.5 83T188 680q138 0 138-90 0-60-77-70v-5q43-5 67-26.5t24-58.5q0-95-150-95zM264 0H127l483 670h136zm495 0H653v65H464v83l177 187h118V159h48V65h-48V0zM575 159h78v79h-6l-72-74v-5z"/><glyph glyph-name="questiondown" unicode="¿" horiz-adv-x="577" d="M238 500h171V337H238v163zm12-224h150v-22q0-49-19.5-76T314 129l-59-29q-43-20-59-34t-16-43q0-35 21.5-51T281-44q67 0 93 19t26 65v16h147V41q0-97-68.5-159T274-180q-124 0-183.5 54T31 17q0 117 129 174l56 24q20 9 27 19t7 27v15z"/><glyph glyph-name="Agrave" unicode="À" horiz-adv-x="716" d="M433 730H274L118 856v5h204l111-126v-5zM158 0H2l247 670h218L714 0H551l-54 149H213zm142 387-38-104h186l-38 104-49 151h-10z"/><glyph glyph-name="Aacute" unicode="Á" horiz-adv-x="716" d="M448 730H289v5l111 126h204v-5zM158 0H2l247 670h218L714 0H551l-54 149H213zm142 387-38-104h186l-38 104-49 151h-10z"/><glyph glyph-name="Acircumflex" unicode="Â" horiz-adv-x="716" d="M310 730H166v5l104 125h178l103-125v-5H407l-43 56h-11zM158 0H2l247 670h218L714 0H551l-54 149H213zm142 387-38-104h186l-38 104-49 151h-10z"/><glyph glyph-name="Atilde" unicode="Ã" horiz-adv-x="716" d="M281 727H181v39q0 107 86 107 25 0 66-18l48-20q27-12 37-12 16 0 16 22v18h100v-46q0-43-19-71t-63-28q-26 0-78 21l-51 21q-22 9-28 9-14 0-14-20v-22zM158 0H2l247 670h218L714 0H551l-54 149H213zm142 387-38-104h186l-38 104-49 151h-10z"/><glyph glyph-name="Adieresis" unicode="Ä" horiz-adv-x="716" d="M535 730H388v132h147V730zm-207 0H181v132h147V730zM158 0H2l247 670h218L714 0H551l-54 149H213zm142 387-38-104h186l-38 104-49 151h-10z"/><glyph glyph-name="Aring" unicode="Å" horiz-adv-x="716" d="M158 0H2l246 666q-10 20-10 45 0 47 33 75.5t87 28.5 87.5-28.5T479 711q0-23-10-46L714 0H551l-54 149H213zm200 679q27 0 36 6.5t9 25.5-9 25-36 6q-26 0-35-6t-9-25 9-25.5 35-6.5zm-58-292-38-104h186l-38 104-49 151h-10z"/><glyph glyph-name="AE" unicode="Æ" horiz-adv-x="1094" d="M184 0H-2l454 670h604V535H695V404h346V270H695V135h361V0H545v148H280zm352 541L368 283h177v258h-9z"/><glyph glyph-name="Ccedilla" unicode="Ç" horiz-adv-x="690" d="M378-229H276v79h100q28 0 28 18 0 11-6 14.5t-22 3.5h-76V-7Q174 9 103 100.5T32 335q0 158 85.5 251.5T353 680q147 0 226-72t79-198v-9H498v5q0 72-33 100.5T352 535q-88 0-124-42t-36-158 36-158 124-42q80 0 113 28.5T498 264v5h160v-9q0-121-72.5-192T379-9v-34h5q51 0 79.5-24.5T492-134q0-44-30-69.5T378-229z"/><glyph glyph-name="Egrave" unicode="È" horiz-adv-x="596" d="M378 730H219L63 856v5h204l111-126v-5zM558 0H47v670h511V535H197V404h346V270H197V135h361V0z"/><glyph glyph-name="Eacute" unicode="É" horiz-adv-x="596" d="M393 730H234v5l111 126h204v-5zM558 0H47v670h511V535H197V404h346V270H197V135h361V0z"/><glyph glyph-name="Ecircumflex" unicode="Ê" horiz-adv-x="596" d="M255 730H111v5l104 125h178l103-125v-5H352l-43 56h-11zM558 0H47v670h511V535H197V404h346V270H197V135h361V0z"/><glyph glyph-name="Edieresis" unicode="Ë" horiz-adv-x="596" d="M480 730H333v132h147V730zm-207 0H126v132h147V730zM558 0H47v670h511V535H197V404h346V270H197V135h361V0z"/><glyph glyph-name="Igrave" unicode="Ì" horiz-adv-x="244" d="M197 730H38l-156 126v5H86l111-126v-5zm0-730H47v670h150V0z"/><glyph glyph-name="Iacute" unicode="Í" horiz-adv-x="244" d="M212 730H53v5l111 126h204v-5zM197 0H47v670h150V0z"/><glyph glyph-name="Icircumflex" unicode="Î" horiz-adv-x="244" d="M73 730H-71v5L33 860h178l103-125v-5H170l-43 56h-11zM197 0H47v670h150V0z"/><glyph glyph-name="Idieresis" unicode="Ï" horiz-adv-x="244" d="M299 730H152v132h147V730zm-207 0H-55v132H92V730zM197 0H47v670h150V0z"/><glyph glyph-name="Eth" unicode="Ð" horiz-adv-x="737" d="M362 0H106v268H8v134h98v268h256q162 0 254.5-89T709 335 616.5 89 362 0zm51 268H256V135h104q105 0 146.5 42T548 335t-41.5 158T360 535H256V402h157V268z"/><glyph glyph-name="Ntilde" unicode="Ñ" horiz-adv-x="685" d="M266 727H166v39q0 107 86 107 25 0 66-18l48-20q27-12 37-12 16 0 16 22v18h100v-46q0-43-19-71t-63-28q-26 0-78 21l-51 21q-22 9-28 9-14 0-14-20v-22zM197 0H47v670h160l217-336 56-90h10l-2 90v336h150V0H478L270 317l-65 103h-10l2-103V0z"/><glyph glyph-name="Ograve" unicode="Ò" horiz-adv-x="707" d="M429 730H270L114 856v5h204l111-126v-5zM354-10q-149 0-235.5 93.5T32 335t86.5 251.5T354 680t235-93.5T675 335 589 83.5 354-10zm0 145q89 0 125 42.5T515 335t-36 157.5T354 535t-125.5-42.5T192 335t36.5-157.5T354 135z"/><glyph glyph-name="Oacute" unicode="Ó" horiz-adv-x="707" d="M444 730H285v5l111 126h204v-5zM354-10q-149 0-235.5 93.5T32 335t86.5 251.5T354 680t235-93.5T675 335 589 83.5 354-10zm0 145q89 0 125 42.5T515 335t-36 157.5T354 535t-125.5-42.5T192 335t36.5-157.5T354 135z"/><glyph glyph-name="Ocircumflex" unicode="Ô" horiz-adv-x="707" d="M305 730H161v5l104 125h178l103-125v-5H402l-43 56h-11zm49-740q-149 0-235.5 93.5T32 335t86.5 251.5T354 680t235-93.5T675 335 589 83.5 354-10zm0 145q89 0 125 42.5T515 335t-36 157.5T354 535t-125.5-42.5T192 335t36.5-157.5T354 135z"/><glyph glyph-name="Otilde" unicode="Õ" horiz-adv-x="707" d="M277 727H177v39q0 107 86 107 25 0 66-18l48-20q27-12 37-12 16 0 16 22v18h100v-46q0-43-19-71t-63-28q-26 0-78 21l-51 21q-22 9-28 9-14 0-14-20v-22zm77-737q-149 0-235.5 93.5T32 335t86.5 251.5T354 680t235-93.5T675 335 589 83.5 354-10zm0 145q89 0 125 42.5T515 335t-36 157.5T354 535t-125.5-42.5T192 335t36.5-157.5T354 135z"/><glyph glyph-name="Odieresis" unicode="Ö" horiz-adv-x="707" d="M531 730H384v132h147V730zm-207 0H177v132h147V730zm30-740q-149 0-235.5 93.5T32 335t86.5 251.5T354 680t235-93.5T675 335 589 83.5 354-10zm0 145q89 0 125 42.5T515 335t-36 157.5T354 535t-125.5-42.5T192 335t36.5-157.5T354 135z"/><glyph glyph-name="multiply" unicode="×" horiz-adv-x="473" d="m447 215-91-90-121 121-120-120-87 87 120 120L27 455l90 90 122-121 120 120 87-87-120-120z"/><glyph glyph-name="Oslash" unicode="Ø" horiz-adv-x="707" d="M354-10q-123 0-205 65L63-31l-77 74 93 94q-47 85-47 198 0 158 86.5 251.5T354 680q120 0 203-64l86 87 77-74-93-94q48-84 48-200 0-158-86-251.5T354-10zM192 335q0-46 6-79l257 258q-35 21-101 21-89 0-125.5-42.5T192 335zm162-200q89 0 125 42.5T515 335q0 47-6 82L251 158q34-23 103-23z"/><glyph glyph-name="Ugrave" unicode="Ù" horiz-adv-x="675" d="M413 730H254L98 856v5h204l111-126v-5zM338-10q-144 0-219 71.5T44 261v409h149V263q0-72 31-100t114-28q82 0 113 28t31 100v407h150V261q0-128-75-199.5T338-10z"/><glyph glyph-name="Uacute" unicode="Ú" horiz-adv-x="675" d="M427 730H268v5l111 126h204v-5zM338-10q-144 0-219 71.5T44 261v409h149V263q0-72 31-100t114-28q82 0 113 28t31 100v407h150V261q0-128-75-199.5T338-10z"/><glyph glyph-name="Ucircumflex" unicode="Û" horiz-adv-x="675" d="M289 730H145v5l104 125h178l103-125v-5H386l-43 56h-11zm49-740q-144 0-219 71.5T44 261v409h149V263q0-72 31-100t114-28q82 0 113 28t31 100v407h150V261q0-128-75-199.5T338-10z"/><glyph glyph-name="Udieresis" unicode="Ü" horiz-adv-x="675" d="M515 730H368v132h147V730zm-207 0H161v132h147V730zm30-740q-144 0-219 71.5T44 261v409h149V263q0-72 31-100t114-28q82 0 113 28t31 100v407h150V261q0-128-75-199.5T338-10z"/><glyph glyph-name="Yacute" unicode="Ý" horiz-adv-x="668" d="M424 730H265v5l111 126h204v-5zM409 0H259v242L-2 670h170l105-176 58-99h10l57 99 105 176h167L409 242V0z"/><glyph glyph-name="Thorn" unicode="Þ" horiz-adv-x="619" d="M197 0H47v670h150V567h158q110 0 178.5-62T602 335q0-109-68.5-170.5T355 103H197V0zm164 432H197V238h164q53 0 72.5 20t19.5 77-19.5 77-72.5 20z"/><glyph glyph-name="germandbls" unicode="ß" d="M185 0H38v436q0 245 269 245 114 0 175.5-46T544 504q0-128-133-144v-10q161-15 161-166 0-91-65-137.5T335 0h-85v135h64q64 0 85 13.5t21 59.5q0 45-19 60t-68 15h-83v123h62q46 0 64.5 13.5T395 471q0 42-20.5 57.5T298 544q-68 0-90.5-20T185 445V0z"/><glyph glyph-name="agrave" unicode="à" horiz-adv-x="544" d="M364 560H205L49 685v5h204l111-125v-5zM185-10q-70 0-114 36T27 128q0 117 160 142l172 26v16q0 42-21.5 56T268 382q-46 0-65.5-15T183 314v-11H40v11q0 90 64.5 144.5T275 513q110 0 168-56.5T501 298V0H362v68h-6q-57-78-171-78zm-15 150q0-36 65-36 124 0 124 94l-144-22q-45-7-45-36z"/><glyph glyph-name="aacute" unicode="á" horiz-adv-x="544" d="M360 560H201v5l111 125h204v-5zM185-10q-70 0-114 36T27 128q0 117 160 142l172 26v16q0 42-21.5 56T268 382q-46 0-65.5-15T183 314v-11H40v11q0 90 64.5 144.5T275 513q110 0 168-56.5T501 298V0H362v68h-6q-57-78-171-78zm-15 150q0-36 65-36 124 0 124 94l-144-22q-45-7-45-36z"/><glyph glyph-name="acircumflex" unicode="â" horiz-adv-x="544" d="M222 560H78v5l104 125h178l103-125v-5H319l-43 56h-11zM185-10q-70 0-114 36T27 128q0 117 160 142l172 26v16q0 42-21.5 56T268 382q-46 0-65.5-15T183 314v-11H40v11q0 90 64.5 144.5T275 513q110 0 168-56.5T501 298V0H362v68h-6q-57-78-171-78zm-15 150q0-36 65-36 124 0 124 94l-144-22q-45-7-45-36z"/><glyph glyph-name="atilde" unicode="ã" horiz-adv-x="544" d="M194 558H94v39q0 106 86 106 23 0 66-17l48-21q25-11 37-11 16 0 16 21v19h100v-47q0-42-19-70t-63-28q-28 0-78 20l-51 22q-24 8-28 8-14 0-14-19v-22zm-9-568q-70 0-114 36T27 128q0 117 160 142l172 26v16q0 42-21.5 56T268 382q-46 0-65.5-15T183 314v-11H40v11q0 90 64.5 144.5T275 513q110 0 168-56.5T501 298V0H362v68h-6q-57-78-171-78zm-15 150q0-36 65-36 124 0 124 94l-144-22q-45-7-45-36z"/><glyph glyph-name="adieresis" unicode="ä" horiz-adv-x="544" d="M448 560H300v132h148V560zm-208 0H93v132h147V560zM185-10q-70 0-114 36T27 128q0 117 160 142l172 26v16q0 42-21.5 56T268 382q-46 0-65.5-15T183 314v-11H40v11q0 90 64.5 144.5T275 513q110 0 168-56.5T501 298V0H362v68h-6q-57-78-171-78zm-15 150q0-36 65-36 124 0 124 94l-144-22q-45-7-45-36z"/><glyph glyph-name="aring" unicode="å" horiz-adv-x="544" d="M271 544q-46 0-74 24t-28 64 28 64 74 24 74-24 28-64-28-64-74-24zm0 61q22 0 30 5.5t8 21.5-8 21.5-30 5.5-30-5.5-8-21.5 8-21.5 30-5.5zM185-10q-70 0-114 36T27 128q0 117 160 142l172 26v16q0 42-21.5 56T268 382q-46 0-65.5-15T183 314v-11H40v11q0 90 64.5 144.5T275 513q110 0 168-56.5T501 298V0H362v68h-6q-57-78-171-78zm-15 150q0-36 65-36 124 0 124 94l-144-22q-45-7-45-36z"/><glyph glyph-name="ae" unicode="æ" horiz-adv-x="886" d="M202-10q-82 0-128.5 35T27 129q0 118 158 141l174 26v16q0 41-21 55.5T269 382q-46 0-65.5-15.5T184 313v-11H40v12q0 90 64.5 144.5T275 513q109 0 169-58 67 58 175 58 109 0 172-61t63-161q0-41-6-75H501q3-54 29-75t85-21q87 0 87 44v6h148v-10q0-80-64-125T614-10q-143 0-207 89-64-89-205-89zm407 398q-52 0-76.5-19.5T503 309h208q1 38-25 58.5T609 388zM170 140q0-36 67-36 127 0 127 95l-149-23q-45-7-45-36z"/><glyph glyph-name="ccedilla" unicode="ç" horiz-adv-x="551" d="M308-229H206v79h100q28 0 28 18 0 11-6 14.5t-22 3.5h-76V-6Q132 8 80 75.5T28 250q0 122 69 192.5T291 513q102 0 167-57t65-149v-12H373v8q0 41-23 58.5T279 379q-55 0-79-29t-24-99q0-69 24-98t79-29q48 0 71 17.5t23 58.5v8h150v-12q0-86-59.5-141.5T309-9v-34h5q51 0 79.5-24.5T422-134q0-44-30-69.5T308-229z"/><glyph glyph-name="egrave" unicode="è" horiz-adv-x="553" d="M370 560H211L55 685v5h204l111-125v-5zM280-10Q154-10 91 58.5T28 250q0 121 68 192t185 71q112 0 176-60.5T521 292q0-34-7-74H169q2-53 27-75.5t86-22.5q86 0 86 44v6h148v-10q0-80-63.5-125T280-10zm-4 400q-52 0-76.5-20T170 309h207q2 39-23.5 60T276 390z"/><glyph glyph-name="eacute" unicode="é" horiz-adv-x="553" d="M366 560H207v5l111 125h204v-5zM280-10Q154-10 91 58.5T28 250q0 121 68 192t185 71q112 0 176-60.5T521 292q0-34-7-74H169q2-53 27-75.5t86-22.5q86 0 86 44v6h148v-10q0-80-63.5-125T280-10zm-4 400q-52 0-76.5-20T170 309h207q2 39-23.5 60T276 390z"/><glyph glyph-name="ecircumflex" unicode="ê" horiz-adv-x="553" d="M228 560H84v5l104 125h178l103-125v-5H325l-43 56h-11zm52-570Q154-10 91 58.5T28 250q0 121 68 192t185 71q112 0 176-60.5T521 292q0-34-7-74H169q2-53 27-75.5t86-22.5q86 0 86 44v6h148v-10q0-80-63.5-125T280-10zm-4 400q-52 0-76.5-20T170 309h207q2 39-23.5 60T276 390z"/><glyph glyph-name="edieresis" unicode="ë" horiz-adv-x="553" d="M454 560H306v132h148V560zm-208 0H99v132h147V560zm34-570Q154-10 91 58.5T28 250q0 121 68 192t185 71q112 0 176-60.5T521 292q0-34-7-74H169q2-53 27-75.5t86-22.5q86 0 86 44v6h148v-10q0-80-63.5-125T280-10zm-4 400q-52 0-76.5-20T170 309h207q2 39-23.5 60T276 390z"/><glyph glyph-name="igrave" unicode="ì" horiz-adv-x="226" d="M206 560H47l-156 125v5H95l111-125v-5zM188 0H38v503h150V0z"/><glyph glyph-name="iacute" unicode="í" horiz-adv-x="226" d="M202 560H43v5l111 125h204v-5zM188 0H38v503h150V0z"/><glyph glyph-name="icircumflex" unicode="î" horiz-adv-x="226" d="M64 560H-80v5L24 690h178l103-125v-5H161l-43 56h-11zM188 0H38v503h150V0z"/><glyph glyph-name="idieresis" unicode="ï" horiz-adv-x="226" d="M291 560H143v132h148V560zm-208 0H-64v132H83V560zM188 0H38v503h150V0z"/><glyph glyph-name="eth" unicode="ð" horiz-adv-x="681" d="M356-10q-135 0-204 62T83 225q0 103 63 157.5T318 437q110 0 167-63l6 3q-30 63-104 140l-174-47-20 69 134 36q-54 49-121 95h202q40-27 69-55l149 39 20-68-113-30q118-142 118-291 0-132-72.5-203.5T356-10zm10 145q70 0 97 19t27 64q0 47-26.5 66T366 303t-97.5-19-26.5-65q0-45 27-64.5t97-19.5z"/><glyph glyph-name="ntilde" unicode="ñ" d="M220 558H120v39q0 106 86 106 23 0 66-17l48-21q25-11 37-11 16 0 16 21v19h100v-47q0-42-19-70t-63-28q-28 0-78 20l-51 22q-24 8-28 8-14 0-14-19v-22zM195 0H46v503h139v-88h6q46 98 169 98 93 0 140-54t47-140V0H397v289q0 53-21.5 74T298 384q-55 0-79-21.5T195 285V0z"/><glyph glyph-name="ograve" unicode="ò" horiz-adv-x="569" d="M378 560H219L63 685v5h204l111-125v-5zM286-10Q165-10 96.5 60.5T28 251q0 121 68.5 191.5T286 513q120 0 187.5-70.5T541 251q0-120-67.5-190.5T286-10zm0 132q61 0 85 28t24 101-24 101.5-85 28.5q-62 0-86-28.5T176 251t24-101 86-28z"/><glyph glyph-name="oacute" unicode="ó" horiz-adv-x="569" d="M374 560H215v5l111 125h204v-5zM286-10Q165-10 96.5 60.5T28 251q0 121 68.5 191.5T286 513q120 0 187.5-70.5T541 251q0-120-67.5-190.5T286-10zm0 132q61 0 85 28t24 101-24 101.5-85 28.5q-62 0-86-28.5T176 251t24-101 86-28z"/><glyph glyph-name="ocircumflex" unicode="ô" horiz-adv-x="569" d="M236 560H92v5l104 125h178l103-125v-5H333l-43 56h-11zm50-570Q165-10 96.5 60.5T28 251q0 121 68.5 191.5T286 513q120 0 187.5-70.5T541 251q0-120-67.5-190.5T286-10zm0 132q61 0 85 28t24 101-24 101.5-85 28.5q-62 0-86-28.5T176 251t24-101 86-28z"/><glyph glyph-name="otilde" unicode="õ" horiz-adv-x="569" d="M208 558H108v39q0 106 86 106 23 0 66-17l48-21q25-11 37-11 16 0 16 21v19h100v-47q0-42-19-70t-63-28q-28 0-78 20l-51 22q-24 8-28 8-14 0-14-19v-22zm78-568Q165-10 96.5 60.5T28 251q0 121 68.5 191.5T286 513q120 0 187.5-70.5T541 251q0-120-67.5-190.5T286-10zm0 132q61 0 85 28t24 101-24 101.5-85 28.5q-62 0-86-28.5T176 251t24-101 86-28z"/><glyph glyph-name="odieresis" unicode="ö" horiz-adv-x="569" d="M463 560H315v132h148V560zm-208 0H108v132h147V560zm31-570Q165-10 96.5 60.5T28 251q0 121 68.5 191.5T286 513q120 0 187.5-70.5T541 251q0-120-67.5-190.5T286-10zm0 132q61 0 85 28t24 101-24 101.5-85 28.5q-62 0-86-28.5T176 251t24-101 86-28z"/><glyph glyph-name="divide" unicode="÷" horiz-adv-x="503" d="M338 465H165v156h173V465zm148-192H39v124h447V273zM338 49H165v156h173V49z"/><glyph glyph-name="oslash" unicode="ø" horiz-adv-x="569" d="M286-10q-101 0-169 52L43-25l-55 60 76 69q-36 60-36 147 0 121 68.5 191.5T286 513q101 0 167-52l72 65 55-60-74-68q35-61 35-147 0-120-67.5-190.5T286-10zM176 251q0-18 2-42l174 159q-23 13-66 13-62 0-86-28.5T176 251zm110-129q61 0 85 28t24 101q0 18-2 44L218 135q25-13 68-13z"/><glyph glyph-name="ugrave" unicode="ù" d="M386 560H227L71 685v5h204l111-125v-5zM230-10q-94 0-140.5 54T43 184v319h149V214q0-53 21.5-74t77.5-21q55 0 79 21.5t24 77.5v285h149V0H404v88h-5q-47-98-169-98z"/><glyph glyph-name="uacute" unicode="ú" d="M382 560H223v5l111 125h204v-5zM230-10q-94 0-140.5 54T43 184v319h149V214q0-53 21.5-74t77.5-21q55 0 79 21.5t24 77.5v285h149V0H404v88h-5q-47-98-169-98z"/><glyph glyph-name="ucircumflex" unicode="û" d="M244 560H100v5l104 125h178l103-125v-5H341l-43 56h-11zM230-10q-94 0-140.5 54T43 184v319h149V214q0-53 21.5-74t77.5-21q55 0 79 21.5t24 77.5v285h149V0H404v88h-5q-47-98-169-98z"/><glyph glyph-name="udieresis" unicode="ü" d="M471 560H323v132h148V560zm-208 0H116v132h147V560zM230-10q-94 0-140.5 54T43 184v319h149V214q0-53 21.5-74t77.5-21q55 0 79 21.5t24 77.5v285h149V0H404v88h-5q-47-98-169-98z"/><glyph glyph-name="yacute" unicode="ý" horiz-adv-x="579" d="M379 560H220v5l111 125h204v-5zM151-170q-46 0-92 11v124h84q30 0 43 7t24 30l9 19L8 503h167l82-210 36-97h11l31 97 71 210h167L349-35q-32-76-77-105.5T151-170z"/><glyph glyph-name="thorn" unicode="þ" horiz-adv-x="609" d="M195-168H46v838h149V429h6q39 84 157 84 106 0 160.5-70T573 251q0-121-57-191T354-10q-55 0-95 21t-58 55h-6v-234zm0 379q0-49 28-71t83-22q67 0 92.5 31T424 251q0 72-25.5 103T306 385q-55 0-83-22t-28-71v-81z"/><glyph glyph-name="ydieresis" unicode="ÿ" horiz-adv-x="579" d="M467 560H319v132h148V560zm-208 0H112v132h147V560zM151-170q-46 0-92 11v124h84q30 0 43 7t24 30l9 19L8 503h167l82-210 36-97h11l31 97 71 210h167L349-35q-32-76-77-105.5T151-170z"/><glyph glyph-name="Amacron" unicode="Ā" horiz-adv-x="716" d="M512 743H205v104h307V743zM158 0H2l247 670h218L714 0H551l-54 149H213zm142 387-38-104h186l-38 104-49 151h-10z"/><glyph glyph-name="amacron" unicode="ā" horiz-adv-x="544" d="M424 572H117v105h307V572zM185-10q-70 0-114 36T27 128q0 117 160 142l172 26v16q0 42-21.5 56T268 382q-46 0-65.5-15T183 314v-11H40v11q0 90 64.5 144.5T275 513q110 0 168-56.5T501 298V0H362v68h-6q-57-78-171-78zm-15 150q0-36 65-36 124 0 124 94l-144-22q-45-7-45-36z"/><glyph glyph-name="Abreve" unicode="Ă" horiz-adv-x="716" d="M359 720q-68 0-109.5 34.5T208 847v14h105v-10q0-23 9.5-31.5T359 811t36 8 9 32v10h105v-14q0-58-41-92.5T359 720zM158 0H2l247 670h218L714 0H551l-54 149H213zm142 387-38-104h186l-38 104-49 151h-10z"/><glyph glyph-name="abreve" unicode="ă" horiz-adv-x="544" d="M271 550q-68 0-109.5 34.5T120 677v14h105v-10q0-23 9.5-31.5T271 641t36 8 9 32v10h105v-14q0-58-41-92.5T271 550zM185-10q-70 0-114 36T27 128q0 117 160 142l172 26v16q0 42-21.5 56T268 382q-46 0-65.5-15T183 314v-11H40v11q0 90 64.5 144.5T275 513q110 0 168-56.5T501 298V0H362v68h-6q-57-78-171-78zm-15 150q0-36 65-36 124 0 124 94l-144-22q-45-7-45-36z"/><glyph glyph-name="Aogonek" unicode="Ą" horiz-adv-x="716" d="M158 0H2l247 670h218L714 0l-44-56q-13-14-13-27 0-14 23-14h53v-90h-94q-96 0-96 68 0 40 47 91l25 28h-64l-54 149H213zm142 387-38-104h186l-38 104-49 151h-10z"/><glyph glyph-name="aogonek" unicode="ą" horiz-adv-x="544" d="M185-10q-70 0-114 36T27 128q0 117 160 142l172 26v16q0 42-21.5 56T268 382q-46 0-65.5-15T183 314v-11H40v11q0 90 64.5 144.5T275 513q110 0 168-56.5T501 298V0l-44-56q-13-16-13-27 0-14 24-14h53v-90h-95q-96 0-96 68 0 40 47 91l25 28h-40v68h-6q-57-78-171-78zm-15 150q0-36 65-36 124 0 124 94l-144-22q-45-7-45-36z"/><glyph glyph-name="Cacute" unicode="Ć" horiz-adv-x="690" d="M444 730H285v5l111 126h204v-5zM353-10q-150 0-235.5 93.5T32 335t85.5 251.5T353 680q147 0 226-72t79-198v-9H498v5q0 72-33 100.5T352 535q-88 0-124-42t-36-158 36-158 124-42q80 0 113 28.5T498 264v5h160v-9q0-126-79-198T353-10z"/><glyph glyph-name="cacute" unicode="ć" horiz-adv-x="551" d="M365 560H206v5l111 125h204v-5zM283-10Q160-10 94 59.5T28 250q0 122 69 192.5T291 513q102 0 167-57t65-149v-12H373v8q0 41-23 58.5T279 379q-55 0-79-29t-24-99q0-69 24-98t79-29q48 0 71 17.5t23 58.5v8h150v-12q0-92-67.5-149T283-10z"/><glyph glyph-name="Ccircumflex" unicode="Ĉ" horiz-adv-x="690" d="M305 730H161v5l104 125h178l103-125v-5H402l-43 56h-11zm48-740q-150 0-235.5 93.5T32 335t85.5 251.5T353 680q147 0 226-72t79-198v-9H498v5q0 72-33 100.5T352 535q-88 0-124-42t-36-158 36-158 124-42q80 0 113 28.5T498 264v5h160v-9q0-126-79-198T353-10z"/><glyph glyph-name="ccircumflex" unicode="ĉ" horiz-adv-x="551" d="M227 560H83v5l104 125h178l103-125v-5H324l-43 56h-11zm56-570Q160-10 94 59.5T28 250q0 122 69 192.5T291 513q102 0 167-57t65-149v-12H373v8q0 41-23 58.5T279 379q-55 0-79-29t-24-99q0-69 24-98t79-29q48 0 71 17.5t23 58.5v8h150v-12q0-92-67.5-149T283-10z"/><glyph glyph-name="Cdotaccent" unicode="Ċ" horiz-adv-x="690" d="M429 730H280v132h149V730zM353-10q-150 0-235.5 93.5T32 335t85.5 251.5T353 680q147 0 226-72t79-198v-9H498v5q0 72-33 100.5T352 535q-88 0-124-42t-36-158 36-158 124-42q80 0 113 28.5T498 264v5h160v-9q0-126-79-198T353-10z"/><glyph glyph-name="cdotaccent" unicode="ċ" horiz-adv-x="551" d="M351 560H202v132h149V560zM283-10Q160-10 94 59.5T28 250q0 122 69 192.5T291 513q102 0 167-57t65-149v-12H373v8q0 41-23 58.5T279 379q-55 0-79-29t-24-99q0-69 24-98t79-29q48 0 71 17.5t23 58.5v8h150v-12q0-92-67.5-149T283-10z"/><glyph glyph-name="Ccaron" unicode="Č" horiz-adv-x="690" d="M403 860h144v-5L443 730H265L162 855v5h144l43-56h11zM353-10q-150 0-235.5 93.5T32 335t85.5 251.5T353 680q147 0 226-72t79-198v-9H498v5q0 72-33 100.5T352 535q-88 0-124-42t-36-158 36-158 124-42q80 0 113 28.5T498 264v5h160v-9q0-126-79-198T353-10z"/><glyph glyph-name="ccaron" unicode="č" horiz-adv-x="551" d="M365 560H187L83 685v5h144l43-56h11l43 56h144v-5zM283-10Q160-10 94 59.5T28 250q0 122 69 192.5T291 513q102 0 167-57t65-149v-12H373v8q0 41-23 58.5T279 379q-55 0-79-29t-24-99q0-69 24-98t79-29q48 0 71 17.5t23 58.5v8h150v-12q0-92-67.5-149T283-10z"/><glyph glyph-name="Dcaron" unicode="Ď" horiz-adv-x="678" d="M391 860h144v-5L431 730H253L150 855v5h144l43-56h11zM303 0H47v670h256q162 0 254.5-89T650 335 557.5 89 303 0zm-2 535H197V135h104q105 0 146.5 42T489 335t-41.5 158T301 535z"/><glyph glyph-name="dcaron" unicode="ď" horiz-adv-x="760" d="M246-10Q141-10 84.5 60T28 251q0 120 58 191t160 71q104 0 146-76h6v233h149V0H408v74h-5q-40-84-157-84zm397 391h-47v89h43q15 0 21 5.5t6 22.5v16h-76v156h173V500q0-119-120-119zM177 251q0-71 24-102t87-31q55 0 82.5 21.5T398 211v81q0 50-27.5 71.5T288 385q-63 0-87-31t-24-103z"/><glyph glyph-name="Dcroat" unicode="Đ" horiz-adv-x="737" d="M362 0H106v268H8v134h98v268h256q162 0 254.5-89T709 335 616.5 89 362 0zm51 268H256V135h104q105 0 146.5 42T548 335t-41.5 158T360 535H256V402h157V268z"/><glyph glyph-name="dcroat" unicode="đ" horiz-adv-x="631" d="M247-10Q142-10 85.5 51.5T29 220t55 169 157 62q55 0 94.5-21.5T393 375h6v122H203v111h196v62h150v-62h74V497h-74V0H410v73h-6q-40-83-157-83zm-68 230q0-54 23.5-78.5T289 117q55 0 82.5 21t27.5 68v29q0 47-27.5 68T289 324q-63 0-86.5-25T179 220z"/><glyph glyph-name="Emacron" unicode="Ē" horiz-adv-x="596" d="M457 743H150v104h307V743zM558 0H47v670h511V535H197V404h346V270H197V135h361V0z"/><glyph glyph-name="emacron" unicode="ē" horiz-adv-x="553" d="M430 572H123v105h307V572zM280-10Q154-10 91 58.5T28 250q0 121 68 192t185 71q112 0 176-60.5T521 292q0-34-7-74H169q2-53 27-75.5t86-22.5q86 0 86 44v6h148v-10q0-80-63.5-125T280-10zm-4 400q-52 0-76.5-20T170 309h207q2 39-23.5 60T276 390z"/><glyph glyph-name="Ebreve" unicode="Ĕ" horiz-adv-x="596" d="M304 720q-68 0-109.5 34.5T153 847v14h105v-10q0-23 9.5-31.5T304 811t36 8 9 32v10h105v-14q0-58-41-92.5T304 720zM558 0H47v670h511V535H197V404h346V270H197V135h361V0z"/><glyph glyph-name="ebreve" unicode="ĕ" horiz-adv-x="553" d="M277 550q-68 0-109.5 34.5T126 677v14h105v-10q0-23 9.5-31.5T277 641t36 8 9 32v10h105v-14q0-58-41-92.5T277 550zm3-560Q154-10 91 58.5T28 250q0 121 68 192t185 71q112 0 176-60.5T521 292q0-34-7-74H169q2-53 27-75.5t86-22.5q86 0 86 44v6h148v-10q0-80-63.5-125T280-10zm-4 400q-52 0-76.5-20T170 309h207q2 39-23.5 60T276 390z"/><glyph glyph-name="Edotaccent" unicode="Ė" horiz-adv-x="596" d="M378 730H229v132h149V730zM558 0H47v670h511V535H197V404h346V270H197V135h361V0z"/><glyph glyph-name="edotaccent" unicode="ė" horiz-adv-x="553" d="M351 560H202v132h149V560zM280-10Q154-10 91 58.5T28 250q0 121 68 192t185 71q112 0 176-60.5T521 292q0-34-7-74H169q2-53 27-75.5t86-22.5q86 0 86 44v6h148v-10q0-80-63.5-125T280-10zm-4 400q-52 0-76.5-20T170 309h207q2 39-23.5 60T276 390z"/><glyph glyph-name="Eogonek" unicode="Ę" horiz-adv-x="596" d="M543 270H197V135h361V0l-44-56q-13-14-13-27 0-14 23-14h53v-90h-94q-96 0-96 68 0 40 47 91l25 28H47v670h511V535H197V404h346V270z"/><glyph glyph-name="eogonek" unicode="ę" horiz-adv-x="553" d="M377-187h-94q-96 0-96 68 0 40 47 91l17 19Q139-1 83.5 66.5T28 250q0 121 68 192t185 71q112 0 176-60.5T521 292q0-34-7-74H169q2-53 27-75.5t86-22.5q86 0 86 44v6h148v-10q0-65-42.5-107T355-3l-41-53q-13-14-13-27 0-14 23-14h53v-90zM276 390q-52 0-76.5-20T170 309h207q2 39-23.5 60T276 390z"/><glyph glyph-name="Ecaron" unicode="Ě" horiz-adv-x="596" d="M352 860h144v-5L392 730H214L111 855v5h144l43-56h11zM558 0H47v670h511V535H197V404h346V270H197V135h361V0z"/><glyph glyph-name="ecaron" unicode="ě" horiz-adv-x="553" d="M366 560H188L84 685v5h144l43-56h11l43 56h144v-5zM280-10Q154-10 91 58.5T28 250q0 121 68 192t185 71q112 0 176-60.5T521 292q0-34-7-74H169q2-53 27-75.5t86-22.5q86 0 86 44v6h148v-10q0-80-63.5-125T280-10zm-4 400q-52 0-76.5-20T170 309h207q2 39-23.5 60T276 390z"/><glyph glyph-name="Gcircumflex" unicode="Ĝ" horiz-adv-x="711" d="M307 730H163v5l104 125h178l103-125v-5H404l-43 56h-11zm18-740q-143 0-220 91.5T28 335q0 158 87 251.5T354 680q147 0 226.5-68T660 423v-5H501v4q0 63-34 88t-116 25q-89 0-126-42.5T188 335q0-117 39.5-159.5T365 133q83 0 118 20t35 78H335v125h327V0H523v102h-6q-18-46-64.5-79T325-10z"/><glyph glyph-name="gcircumflex" unicode="ĝ" horiz-adv-x="593" d="M242 560H98v5l104 125h178l103-125v-5H339l-43 56h-11zm-1-507q-103 0-158 61T28 282t57 169 162 62q115 0 156-83h5v73h139V56q0-236-249-236-118 0-181.5 50.5T53 17h149q0-40 19-52.5T303-48q59 0 77 18.5T398 48v78h-6q-18-31-57.5-52T241 53zm-64 229q0-55 24-79.5t86-24.5q111 0 111 89v30q0 47-27.5 68T288 386q-63 0-87-24.5T177 282z"/><glyph glyph-name="Gbreve" unicode="Ğ" horiz-adv-x="711" d="M356 720q-68 0-109.5 34.5T205 847v14h105v-10q0-23 9.5-31.5T356 811t36 8 9 32v10h105v-14q0-58-41-92.5T356 720zM325-10q-143 0-220 91.5T28 335q0 158 87 251.5T354 680q147 0 226.5-68T660 423v-5H501v4q0 63-34 88t-116 25q-89 0-126-42.5T188 335q0-117 39.5-159.5T365 133q83 0 118 20t35 78H335v125h327V0H523v102h-6q-18-46-64.5-79T325-10z"/><glyph glyph-name="gbreve" unicode="ğ" horiz-adv-x="593" d="M291 550q-68 0-109.5 34.5T140 677v14h105v-10q0-23 9.5-31.5T291 641t36 8 9 32v10h105v-14q0-58-41-92.5T291 550zM241 53q-103 0-158 61T28 282t57 169 162 62q115 0 156-83h5v73h139V56q0-236-249-236-118 0-181.5 50.5T53 17h149q0-40 19-52.5T303-48q59 0 77 18.5T398 48v78h-6q-18-31-57.5-52T241 53zm-64 229q0-55 24-79.5t86-24.5q111 0 111 89v30q0 47-27.5 68T288 386q-63 0-87-24.5T177 282z"/><glyph glyph-name="Gdotaccent" unicode="Ġ" horiz-adv-x="711" d="M431 730H282v132h149V730zM325-10q-143 0-220 91.5T28 335q0 158 87 251.5T354 680q147 0 226.5-68T660 423v-5H501v4q0 63-34 88t-116 25q-89 0-126-42.5T188 335q0-117 39.5-159.5T365 133q83 0 118 20t35 78H335v125h327V0H523v102h-6q-18-46-64.5-79T325-10z"/><glyph glyph-name="gdotaccent" unicode="ġ" horiz-adv-x="593" d="M365 560H216v132h149V560zM241 53q-103 0-158 61T28 282t57 169 162 62q115 0 156-83h5v73h139V56q0-236-249-236-118 0-181.5 50.5T53 17h149q0-40 19-52.5T303-48q59 0 77 18.5T398 48v78h-6q-18-31-57.5-52T241 53zm-64 229q0-55 24-79.5t86-24.5q111 0 111 89v30q0 47-27.5 68T288 386q-63 0-87-24.5T177 282z"/><glyph glyph-name="Gcommaaccent" unicode="Ģ" horiz-adv-x="711" d="M325-10q-143 0-220 91.5T28 335q0 158 87 251.5T354 680q147 0 226.5-68T660 423v-5H501v4q0 63-34 88t-116 25q-89 0-126-42.5T188 335q0-117 39.5-159.5T365 133q83 0 118 20t35 78H335v125h327V0H523v102h-6q-18-46-64.5-79T325-10zm25-190H211v5l80 125h187v-5z"/><glyph glyph-name="gcommaaccent" unicode="ģ" horiz-adv-x="593" d="M313 690h139v-5l-80-125H184v5zM241 53q-103 0-158 61T28 282t57 169 162 62q115 0 156-83h5v73h139V56q0-236-249-236-118 0-181.5 50.5T53 17h149q0-40 19-52.5T303-48q59 0 77 18.5T398 48v78h-6q-18-31-57.5-52T241 53zm-64 229q0-55 24-79.5t86-24.5q111 0 111 89v30q0 47-27.5 68T288 386q-63 0-87-24.5T177 282z"/><glyph glyph-name="Hcircumflex" unicode="Ĥ" horiz-adv-x="686" d="M295 730H151v5l104 125h178l103-125v-5H392l-43 56h-11zM197 0H47v670h150V404h292v266h150V0H489v270H197V0z"/><glyph glyph-name="hcircumflex" unicode="ĥ" d="M72 730H-72v5L32 860h178l103-125v-5H169l-43 56h-11zM195 0H46v670h149V425h6q22 38 63.5 63t98.5 25q93 0 138.5-54T547 319V0H397v289q0 53-21.5 74T298 384q-55 0-79-22t-24-78V0z"/><glyph glyph-name="Hbar" unicode="Ħ" horiz-adv-x="756" d="M232 0H82v472H8v130h74v68h150v-68h292v68h150v-68h74V472h-74V0H524v270H232V0zm0 404h292v68H232v-68z"/><glyph glyph-name="hbar" unicode="ħ" horiz-adv-x="628" d="M232 0H82v496H8v111h74v63h150v-63h196V496H232V363h5q23 39 64.5 63.5T399 451q93 0 138.5-54T583 257V0H433v227q0 53-21.5 74T334 322q-55 0-78.5-22T232 222V0z"/><glyph glyph-name="Itilde" unicode="Ĩ" horiz-adv-x="244" d="M45 727H-55v39q0 107 86 107 25 0 66-18l48-20q27-12 37-12 16 0 16 22v18h100v-46q0-43-19-71t-63-28q-26 0-78 21l-51 21q-22 9-28 9-14 0-14-20v-22zM197 0H47v670h150V0z"/><glyph glyph-name="itilde" unicode="ĩ" horiz-adv-x="226" d="M36 558H-64v39q0 106 86 106 23 0 66-17l48-21q25-11 37-11 16 0 16 21v19h100v-47q0-42-19-70t-63-28q-28 0-78 20l-51 22q-24 8-28 8-14 0-14-19v-22zM188 0H38v503h150V0z"/><glyph glyph-name="Imacron" unicode="Ī" horiz-adv-x="244" d="M276 743H-31v104h307V743zM197 0H47v670h150V0z"/><glyph glyph-name="imacron" unicode="ī" horiz-adv-x="226" d="M267 572H-40v105h307V572zM188 0H38v503h150V0z"/><glyph glyph-name="Ibreve" unicode="Ĭ" horiz-adv-x="244" d="M122 720q-68 0-109.5 34.5T-29 847v14H76v-10q0-23 9.5-31.5T122 811t36 8 9 32v10h105v-14q0-58-41-92.5T122 720zM197 0H47v670h150V0z"/><glyph glyph-name="ibreve" unicode="ĭ" horiz-adv-x="226" d="M113 550q-68 0-109.5 34.5T-38 677v14H67v-10q0-23 9.5-31.5T113 641t36 8 9 32v10h105v-14q0-58-41-92.5T113 550zM188 0H38v503h150V0z"/><glyph glyph-name="Iogonek" unicode="Į" horiz-adv-x="244" d="M216-187h-94q-96 0-96 68 0 40 47 91L98 0H47v670h150V0l-44-56q-13-14-13-27 0-14 23-14h53v-90z"/><glyph glyph-name="iogonek" unicode="į" horiz-adv-x="228" d="M187 560H40l-2 110h149V560zm22-747h-94q-96 0-96 68 0 40 47 91L91 0H40v503h150V0l-44-56q-13-14-13-27 0-14 23-14h53v-90z"/><glyph glyph-name="Idotaccent" unicode="İ" horiz-adv-x="244" d="M196 730H47v132h149V730zm1-730H47v670h150V0z"/><glyph glyph-name="dotlessi" unicode="ı" horiz-adv-x="226" d="M188 0H38v503h150V0z"/><glyph glyph-name="IJ" unicode="Ĳ" horiz-adv-x="816" d="M197 0H47v670h150V0zm314-10q-142 0-206.5 68.5T240 257v20h159v-27q0-68 19.5-91.5T506 135q67 0 86.5 23.5T612 250v420h160V263q0-273-261-273z"/><glyph glyph-name="ij" unicode="ĳ" horiz-adv-x="492" d="M187 560H40l-2 110h149V560zm260 0H297v110h150V560zM190 0H40v503h150V0zm10-168v126h40q37 0 47 8t10 36v501h150V25q0-108-52-151.5T243-170q-17 0-43 2z"/><glyph glyph-name="Jcircumflex" unicode="Ĵ" horiz-adv-x="585" d="M413 730H269v5l104 125h178l103-125v-5H510l-43 56h-11zM280-10Q138-10 73.5 58.5T9 257v20h159v-27q0-68 19.5-91.5T275 135q67 0 86.5 23.5T381 250v420h160V263q0-273-261-273z"/><glyph glyph-name="jcircumflex" unicode="ĵ" horiz-adv-x="244" d="M73 560H-71v5L33 690h178l103-125v-5H170l-43 56h-11zM-49-168v126h40q37 0 47 8T48 2v501h150V25q0-108-52-151.5T-6-170q-17 0-43 2z"/><glyph glyph-name="Kcommaaccent" unicode="Ķ" horiz-adv-x="653" d="M197 0H47v670h150V403h127l157 267h170L449 338 648 0H476L326 258H197V0zm107-200H165v5l80 125h187v-5z"/><glyph glyph-name="kcommaaccent" unicode="ķ" horiz-adv-x="553" d="M195 0H46v670h149V317h74l114 186h172L391 263 554 0H382L272 183h-77V0zm76-200H132v5l80 125h187v-5z"/><glyph glyph-name="Lacute" unicode="Ĺ" horiz-adv-x="561" d="M206 730H47v5l111 126h204v-5zM543 0H47v670h150V135h346V0z"/><glyph glyph-name="lacute" unicode="ĺ" horiz-adv-x="241" d="M205 727H46v5l111 125h204v-5zM195 0H46v670h149V0z"/><glyph glyph-name="Lcommaaccent" unicode="Ļ" horiz-adv-x="561" d="M543 0H47v670h150V135h346V0zM252-200H113v5l80 125h187v-5z"/><glyph glyph-name="lcommaaccent" unicode="ļ" horiz-adv-x="241" d="M195 0H46v670h149V0zM78-200H-61v5L19-70h187v-5z"/><glyph glyph-name="Lcaron" unicode="Ľ" horiz-adv-x="561" d="M543 0H47v670h150V135h346V0zM377 381h-48v89h43q15 0 21 5.5t6 22.5v16h-76v156h174V500q0-119-120-119z"/><glyph glyph-name="lcaron" unicode="ľ" horiz-adv-x="408" d="M195 0H46v670h149V0zm96 381h-47v89h43q15 0 21 5.5t6 22.5v16h-76v156h173V500q0-119-120-119z"/><glyph glyph-name="Ldot" unicode="Ŀ" horiz-adv-x="561" d="M543 0H47v670h150V135h346V0zm-60 269H333v132h150V269z"/><glyph glyph-name="ldot" unicode="ŀ" horiz-adv-x="375" d="M195 0H46v670h149V0zm189 269H234v132h150V269z"/><glyph glyph-name="Lslash" unicode="Ł" horiz-adv-x="609" d="m402 370-157-65V135h346V0H95v244L8 208v140l87 36v286h150V445l157 65V370z"/><glyph glyph-name="lslash" unicode="ł" horiz-adv-x="389" d="M269 0H120v299l-72-34-42 86 114 54v265h149V476l72 34 42-86-114-54V0z"/><glyph glyph-name="Nacute" unicode="Ń" horiz-adv-x="685" d="M433 730H274v5l111 126h204v-5zM197 0H47v670h160l217-336 56-90h10l-2 90v336h150V0H478L270 317l-65 103h-10l2-103V0z"/><glyph glyph-name="nacute" unicode="ń" d="M386 560H227v5l111 125h204v-5zM195 0H46v503h139v-88h6q46 98 169 98 93 0 140-54t47-140V0H397v289q0 53-21.5 74T298 384q-55 0-79-21.5T195 285V0z"/><glyph glyph-name="Ncommaaccent" unicode="Ņ" horiz-adv-x="685" d="M197 0H47v670h160l217-336 56-90h10l-2 90v336h150V0H478L270 317l-65 103h-10l2-103V0zm103-200H161v5l80 125h187v-5z"/><glyph glyph-name="ncommaaccent" unicode="ņ" d="M195 0H46v503h139v-88h6q46 98 169 98 93 0 140-54t47-140V0H397v289q0 53-21.5 74T298 384q-55 0-79-21.5T195 285V0zm59-200H115v5l80 125h187v-5z"/><glyph glyph-name="Ncaron" unicode="Ň" horiz-adv-x="685" d="M392 860h144v-5L432 730H254L151 855v5h144l43-56h11zM197 0H47v670h160l217-336 56-90h10l-2 90v336h150V0H478L270 317l-65 103h-10l2-103V0z"/><glyph glyph-name="ncaron" unicode="ň" d="M386 560H208L104 685v5h144l43-56h11l43 56h144v-5zM195 0H46v503h139v-88h6q46 98 169 98 93 0 140-54t47-140V0H397v289q0 53-21.5 74T298 384q-55 0-79-21.5T195 285V0z"/><glyph glyph-name="Eng" unicode="Ŋ" horiz-adv-x="687" d="M419-170h-33v135h49q34 0 44.5 7T490 1L208 415h-10V0H48v670h160l271-416h11v416h149V39q0-116-56-162.5T419-170z"/><glyph glyph-name="eng" unicode="ŋ" d="M195 0H46v503h139v-88h6q46 98 169 98 93 0 140-54t47-140V33q0-112-56-157.5T327-170h-32v135h41q40 0 50.5 8.5T397 10v279q0 53-21.5 74T298 384q-55 0-79-21.5T195 285V0z"/><glyph glyph-name="Omacron" unicode="Ō" horiz-adv-x="707" d="M508 743H201v104h307V743zM354-10q-149 0-235.5 93.5T32 335t86.5 251.5T354 680t235-93.5T675 335 589 83.5 354-10zm0 145q89 0 125 42.5T515 335t-36 157.5T354 535t-125.5-42.5T192 335t36.5-157.5T354 135z"/><glyph glyph-name="omacron" unicode="ō" horiz-adv-x="569" d="M439 572H132v105h307V572zM286-10Q165-10 96.5 60.5T28 251q0 121 68.5 191.5T286 513q120 0 187.5-70.5T541 251q0-120-67.5-190.5T286-10zm0 132q61 0 85 28t24 101-24 101.5-85 28.5q-62 0-86-28.5T176 251t24-101 86-28z"/><glyph glyph-name="Obreve" unicode="Ŏ" horiz-adv-x="707" d="M354 720q-68 0-109.5 34.5T203 847v14h105v-10q0-23 9.5-31.5T354 811t36 8 9 32v10h105v-14q0-58-41-92.5T354 720zm0-730q-149 0-235.5 93.5T32 335t86.5 251.5T354 680t235-93.5T675 335 589 83.5 354-10zm0 145q89 0 125 42.5T515 335t-36 157.5T354 535t-125.5-42.5T192 335t36.5-157.5T354 135z"/><glyph glyph-name="obreve" unicode="ŏ" horiz-adv-x="569" d="M285 550q-68 0-109.5 34.5T134 677v14h105v-10q0-23 9.5-31.5T285 641t36 8 9 32v10h105v-14q0-58-41-92.5T285 550zm1-560Q165-10 96.5 60.5T28 251q0 121 68.5 191.5T286 513q120 0 187.5-70.5T541 251q0-120-67.5-190.5T286-10zm0 132q61 0 85 28t24 101-24 101.5-85 28.5q-62 0-86-28.5T176 251t24-101 86-28z"/><glyph glyph-name="Ohungarumlaut" unicode="Ő" horiz-adv-x="707" d="M499 730H371v5l67 126h169v-5zm-205 0H165v5l67 126h170v-5zm60-740q-149 0-235.5 93.5T32 335t86.5 251.5T354 680t235-93.5T675 335 589 83.5 354-10zm0 145q89 0 125 42.5T515 335t-36 157.5T354 535t-125.5-42.5T192 335t36.5-157.5T354 135z"/><glyph glyph-name="ohungarumlaut" unicode="ő" horiz-adv-x="569" d="M225 560H97v5l66 125h170v-5zm206 0H303v5l66 125h170v-5zM286-10Q165-10 96.5 60.5T28 251q0 121 68.5 191.5T286 513q120 0 187.5-70.5T541 251q0-120-67.5-190.5T286-10zm0 132q61 0 85 28t24 101-24 101.5-85 28.5q-62 0-86-28.5T176 251t24-101 86-28z"/><glyph glyph-name="OE" unicode="Œ" horiz-adv-x="1035" d="M997 0H375Q213 0 120.5 89T28 335t92.5 246T375 670h622V535H636V404h346V270H636V135h361V0zM377 135h109v400H377q-105 0-146.5-42T189 335t41.5-158T377 135z"/><glyph glyph-name="oe" unicode="œ" horiz-adv-x="926" d="M286-10Q165-10 96.5 60.5T28 251q0 121 68.5 191.5T286 513q117 0 185-68 68 68 183 68 112 0 176-60.5T894 292q0-34-7-74H542q2-53 27-75.5t86-22.5q86 0 86 44v6h148v-10q0-80-63.5-125T653-10q-122 0-185 65-68-65-182-65zm363 400q-52 0-76.5-20T543 309h207q2 39-23.5 60T649 390zM286 122q61 0 85 28t24 101-24 101.5-85 28.5q-62 0-86-28.5T176 251t24-101 86-28z"/><glyph glyph-name="Racute" unicode="Ŕ" horiz-adv-x="640" d="M400 730H241v5l111 126h204v-5zM197 0H47v670h308q120 0 184.5-53T604 466q0-169-169-184v-10q41-13 66-37.5t46-66.5L632 0H457l-79 155q-25 48-48 65.5T257 238h-60V0zm0 535V362h165q53 0 73 19t20 68q0 48-20.5 67T362 535H197z"/><glyph glyph-name="racute" unicode="ŕ" horiz-adv-x="493" d="M350 560H191v5l111 125h204v-5zM195 0H46v503h139v-81h6q45 91 141 91 75 0 109.5-48.5T476 334v-46H327v27q0 40-14 55.5T263 386t-52-15.5-16-55.5V0z"/><glyph glyph-name="Rcommaaccent" unicode="Ŗ" horiz-adv-x="640" d="M197 0H47v670h308q120 0 184.5-53T604 466q0-169-169-184v-10q41-13 66-37.5t46-66.5L632 0H457l-79 155q-25 48-48 65.5T257 238h-60V0zm0 535V362h165q53 0 73 19t20 68q0 48-20.5 67T362 535H197zm72-735H130v5l80 125h187v-5z"/><glyph glyph-name="rcommaaccent" unicode="ŗ" horiz-adv-x="493" d="M195 0H46v503h139v-81h6q45 91 141 91 75 0 109.5-48.5T476 334v-46H327v27q0 40-14 55.5T263 386t-52-15.5-16-55.5V0zM82-200H-57v5L23-70h187v-5z"/><glyph glyph-name="Rcaron" unicode="Ř" horiz-adv-x="640" d="M359 860h144v-5L399 730H221L118 855v5h144l43-56h11zM197 0H47v670h308q120 0 184.5-53T604 466q0-169-169-184v-10q41-13 66-37.5t46-66.5L632 0H457l-79 155q-25 48-48 65.5T257 238h-60V0zm0 535V362h165q53 0 73 19t20 68q0 48-20.5 67T362 535H197z"/><glyph glyph-name="rcaron" unicode="ř" horiz-adv-x="493" d="M350 560H172L68 685v5h144l43-56h11l43 56h144v-5zM195 0H46v503h139v-81h6q45 91 141 91 75 0 109.5-48.5T476 334v-46H327v27q0 40-14 55.5T263 386t-52-15.5-16-55.5V0z"/><glyph glyph-name="Sacute" unicode="Ś" horiz-adv-x="619" d="M399 730H240v5l111 126h204v-5zM335-10Q47-10 47 218v13h147v-10q0-56 29-75.5T342 126q62 0 84 13.5t22 48.5q0 36-18.5 51T344 265l-118 21Q44 317 44 477q0 85 66.5 144T311 680q137 0 204-63t67-169v-8H434v11q0 53-27 73t-101 20q-63 0-88-14.5T193 483t18-44.5 78-23.5l119-23q189-36 189-199 0-88-64-145.5T335-10z"/><glyph glyph-name="sacute" unicode="ś" horiz-adv-x="505" d="M342 560H183v5l111 125h204v-5zM267-10Q32-10 32 171v3h143v-21q0-27 19.5-36t75.5-9q44 0 57.5 7t13.5 27-15 28-66 17l-76 14q-77 14-115 49.5T31 354q0 72 57 115.5T250 513q96 0 156.5-44.5T467 342v-14H324v14q0 27-16 39t-62 12q-43 0-58.5-9T172 356q0-18 12.5-26t56.5-17l92-19q79-15 114.5-51.5T483 144q0-71-56.5-112.5T267-10z"/><glyph glyph-name="Scircumflex" unicode="Ŝ" horiz-adv-x="619" d="M260 730H116v5l104 125h178l103-125v-5H357l-43 56h-11zm75-740Q47-10 47 218v13h147v-10q0-56 29-75.5T342 126q62 0 84 13.5t22 48.5q0 36-18.5 51T344 265l-118 21Q44 317 44 477q0 85 66.5 144T311 680q137 0 204-63t67-169v-8H434v11q0 53-27 73t-101 20q-63 0-88-14.5T193 483t18-44.5 78-23.5l119-23q189-36 189-199 0-88-64-145.5T335-10z"/><glyph glyph-name="scircumflex" unicode="ŝ" horiz-adv-x="505" d="M204 560H60v5l104 125h178l103-125v-5H301l-43 56h-11zm63-570Q32-10 32 171v3h143v-21q0-27 19.5-36t75.5-9q44 0 57.5 7t13.5 27-15 28-66 17l-76 14q-77 14-115 49.5T31 354q0 72 57 115.5T250 513q96 0 156.5-44.5T467 342v-14H324v14q0 27-16 39t-62 12q-43 0-58.5-9T172 356q0-18 12.5-26t56.5-17l92-19q79-15 114.5-51.5T483 144q0-71-56.5-112.5T267-10z"/><glyph glyph-name="Scedilla" unicode="Ş" horiz-adv-x="619" d="M347-229H245v79h100q28 0 28 18 0 11-6 14.5t-22 3.5h-76V-7Q47 18 47 218v13h147v-10q0-56 29-75.5T342 126q62 0 84 13.5t22 48.5q0 36-18.5 51T344 265l-118 21Q44 317 44 477q0 85 66.5 144T311 680q137 0 204-63t67-169v-8H434v11q0 53-27 73t-101 20q-63 0-88-14.5T193 483t18-44.5 78-23.5l119-23q189-36 189-199 0-86-61-143T348-10v-33h5q51 0 79.5-24.5T461-134q0-44-30-69.5T347-229z"/><glyph glyph-name="scedilla" unicode="ş" horiz-adv-x="505" d="M290-229H188v79h100q28 0 28 18 0 11-6 14.5t-22 3.5h-76V-7Q32 12 32 171v3h143v-21q0-27 19.5-36t75.5-9q44 0 57.5 7t13.5 27-15 28-66 17l-76 14q-77 14-115 49.5T31 354q0 72 57 115.5T250 513q96 0 156.5-44.5T467 342v-14H324v14q0 27-16 39t-62 12q-43 0-58.5-9T172 356q0-18 12.5-26t56.5-17l92-19q79-15 114.5-51.5T483 144q0-67-50-108T291-9v-34h5q51 0 79.5-24.5T404-134q0-44-30-69.5T290-229z"/><glyph glyph-name="Scaron" unicode="Š" horiz-adv-x="619" d="M358 860h144v-5L398 730H220L117 855v5h144l43-56h11zM335-10Q47-10 47 218v13h147v-10q0-56 29-75.5T342 126q62 0 84 13.5t22 48.5q0 36-18.5 51T344 265l-118 21Q44 317 44 477q0 85 66.5 144T311 680q137 0 204-63t67-169v-8H434v11q0 53-27 73t-101 20q-63 0-88-14.5T193 483t18-44.5 78-23.5l119-23q189-36 189-199 0-88-64-145.5T335-10z"/><glyph glyph-name="scaron" unicode="š" horiz-adv-x="505" d="M342 560H164L60 685v5h144l43-56h11l43 56h144v-5zM267-10Q32-10 32 171v3h143v-21q0-27 19.5-36t75.5-9q44 0 57.5 7t13.5 27-15 28-66 17l-76 14q-77 14-115 49.5T31 354q0 72 57 115.5T250 513q96 0 156.5-44.5T467 342v-14H324v14q0 27-16 39t-62 12q-43 0-58.5-9T172 356q0-18 12.5-26t56.5-17l92-19q79-15 114.5-51.5T483 144q0-71-56.5-112.5T267-10z"/><glyph glyph-name="Tcedilla" unicode="Ţ" horiz-adv-x="586" d="M368 0h-41v-43h5q51 0 79.5-24.5T440-134q0-44-30-69.5T326-229H224v79h100q28 0 28 18 0 11-6 14.5t-22 3.5h-76V0h-30v535H2v135h582V535H368V0z"/><glyph glyph-name="tcedilla" unicode="ţ" horiz-adv-x="400" d="M278-2q-17 0-25 1v-42h5q51 0 79.5-24.5T366-134q0-44-30-69.5T252-229H150v79h100q28 0 28 18 0 11-6 14.5t-22 3.5h-76V3h39Q84 25 84 165v214H4v124h84l28 117h118V503h142V379H234V182q0-32 15-40.5t65-8.5h62V8Q328-2 278-2z"/><glyph glyph-name="Tcaron" unicode="Ť" horiz-adv-x="586" d="M342 860h144v-5L382 730H204L101 855v5h144l43-56h11zM368 0H218v535H2v135h582V535H368V0z"/><glyph glyph-name="tcaron" unicode="ť" horiz-adv-x="400" d="M310 529h-47v89h43q15 0 21 5.5t6 22.5v16h-76v156h173V648q0-119-120-119zM278-2Q178-2 131 37.5T84 165v214H4v124h84l28 117h118V503h142V379H234V182q0-32 15-40.5t65-8.5h62V8Q328-2 278-2z"/><glyph glyph-name="Tbar" unicode="Ŧ" horiz-adv-x="586" d="M368 0H218v263H51v135h167v137H2v135h582V535H368V398h168V263H368V0z"/><glyph glyph-name="tbar" unicode="ŧ" horiz-adv-x="403" d="M4 202v122h83v57H4v122h87l28 117h118V503h142V381H237v-57h142V202H237v-20q0-32 15-40.5t65-8.5h62V8Q331-2 281-2 181-2 134 37.5T87 165v37H4z"/><glyph glyph-name="Utilde" unicode="Ũ" horiz-adv-x="675" d="M261 727H161v39q0 107 86 107 25 0 66-18l48-20q27-12 37-12 16 0 16 22v18h100v-46q0-43-19-71t-63-28q-26 0-78 21l-51 21q-22 9-28 9-14 0-14-20v-22zm77-737q-144 0-219 71.5T44 261v409h149V263q0-72 31-100t114-28q82 0 113 28t31 100v407h150V261q0-128-75-199.5T338-10z"/><glyph glyph-name="utilde" unicode="ũ" d="M216 558H116v39q0 106 86 106 23 0 66-17l48-21q25-11 37-11 16 0 16 21v19h100v-47q0-42-19-70t-63-28q-28 0-78 20l-51 22q-24 8-28 8-14 0-14-19v-22zm14-568q-94 0-140.5 54T43 184v319h149V214q0-53 21.5-74t77.5-21q55 0 79 21.5t24 77.5v285h149V0H404v88h-5q-47-98-169-98z"/><glyph glyph-name="Umacron" unicode="Ū" horiz-adv-x="675" d="M491 743H184v104h307V743zM338-10q-144 0-219 71.5T44 261v409h149V263q0-72 31-100t114-28q82 0 113 28t31 100v407h150V261q0-128-75-199.5T338-10z"/><glyph glyph-name="umacron" unicode="ū" d="M447 572H140v105h307V572zM230-10q-94 0-140.5 54T43 184v319h149V214q0-53 21.5-74t77.5-21q55 0 79 21.5t24 77.5v285h149V0H404v88h-5q-47-98-169-98z"/><glyph glyph-name="Ubreve" unicode="Ŭ" horiz-adv-x="675" d="M338 720q-68 0-109.5 34.5T187 847v14h105v-10q0-23 9.5-31.5T338 811t36 8 9 32v10h105v-14q0-58-41-92.5T338 720zm0-730q-144 0-219 71.5T44 261v409h149V263q0-72 31-100t114-28q82 0 113 28t31 100v407h150V261q0-128-75-199.5T338-10z"/><glyph glyph-name="ubreve" unicode="ŭ" d="M293 550q-68 0-109.5 34.5T142 677v14h105v-10q0-23 9.5-31.5T293 641t36 8 9 32v10h105v-14q0-58-41-92.5T293 550zM230-10q-94 0-140.5 54T43 184v319h149V214q0-53 21.5-74t77.5-21q55 0 79 21.5t24 77.5v285h149V0H404v88h-5q-47-98-169-98z"/><glyph glyph-name="Uring" unicode="Ů" horiz-adv-x="675" d="M338 714q-46 0-74 24t-28 64 28 64 74 24 74-24 28-64-28-64-74-24zm0 61q22 0 30 5.5t8 21.5-8 21.5-30 5.5-30-5.5-8-21.5 8-21.5 30-5.5zm0-785q-144 0-219 71.5T44 261v409h149V263q0-72 31-100t114-28q82 0 113 28t31 100v407h150V261q0-128-75-199.5T338-10z"/><glyph glyph-name="uring" unicode="ů" d="M293 544q-46 0-74 24t-28 64 28 64 74 24 74-24 28-64-28-64-74-24zm0 61q22 0 30 5.5t8 21.5-8 21.5-30 5.5-30-5.5-8-21.5 8-21.5 30-5.5zM230-10q-94 0-140.5 54T43 184v319h149V214q0-53 21.5-74t77.5-21q55 0 79 21.5t24 77.5v285h149V0H404v88h-5q-47-98-169-98z"/><glyph glyph-name="Uhungarumlaut" unicode="Ű" horiz-adv-x="675" d="M483 730H355v5l67 126h169v-5zm-205 0H149v5l67 126h170v-5zm60-740q-144 0-219 71.5T44 261v409h149V263q0-72 31-100t114-28q82 0 113 28t31 100v407h150V261q0-128-75-199.5T338-10z"/><glyph glyph-name="uhungarumlaut" unicode="ű" d="M233 560H105v5l66 125h170v-5zm206 0H311v5l66 125h170v-5zM230-10q-94 0-140.5 54T43 184v319h149V214q0-53 21.5-74t77.5-21q55 0 79 21.5t24 77.5v285h149V0H404v88h-5q-47-98-169-98z"/><glyph glyph-name="Uogonek" unicode="Ų" horiz-adv-x="675" d="M433-187h-94q-96 0-96 68 0 40 47 91l17 19Q178-1 111 70T44 261v409h149V263q0-72 31-100t114-28q82 0 113 28t31 100v407h150V261q0-110-56.5-179T410-5l-40-51q-13-14-13-27 0-14 23-14h53v-90z"/><glyph glyph-name="uogonek" unicode="ų" d="M230-10q-94 0-140.5 54T43 184v319h149V214q0-53 21.5-74t77.5-21q55 0 79 21.5t24 77.5v285h149V0l-44-56q-13-14-13-27 0-14 23-14h53v-90h-94q-96 0-96 68 0 40 47 91l25 28h-40v88h-5q-47-98-169-98z"/><glyph glyph-name="Wcircumflex" unicode="Ŵ" horiz-adv-x="986" d="M444 730H300v5l104 125h178l103-125v-5H541l-43 56h-11zM363 0H143L8 670h174l51-302 24-221h11l41 221 79 302h213l79-300 42-223h11l24 223 51 300h170L843 0H624l-81 297-45 212h-10l-45-212z"/><glyph glyph-name="wcircumflex" unicode="ŵ" horiz-adv-x="834" d="M369 560H225v5l104 125h178l103-125v-5H466l-43 56h-11zM321 0H125L8 503h165l33-232 19-151h11l28 151 61 232h191l62-233 27-150h10l18 150 35 233h158L709 0H513l-65 239-25 132h-11l-25-132z"/><glyph glyph-name="Ycircumflex" unicode="Ŷ" horiz-adv-x="668" d="M285 730H141v5l104 125h178l103-125v-5H382l-43 56h-11zM409 0H259v242L-2 670h170l105-176 58-99h10l57 99 105 176h167L409 242V0z"/><glyph glyph-name="ycircumflex" unicode="ŷ" horiz-adv-x="579" d="M241 560H97v5l104 125h178l103-125v-5H338l-43 56h-11zm-90-730q-46 0-92 11v124h84q30 0 43 7t24 30l9 19L8 503h167l82-210 36-97h11l31 97 71 210h167L349-35q-32-76-77-105.5T151-170z"/><glyph glyph-name="Ydieresis" unicode="Ÿ" horiz-adv-x="668" d="M511 730H364v132h147V730zm-207 0H157v132h147V730zM409 0H259v242L-2 670h170l105-176 58-99h10l57 99 105 176h167L409 242V0z"/><glyph glyph-name="Zacute" unicode="Ź" horiz-adv-x="602" d="M391 730H232v5l111 126h204v-5zM582 0H20v124l344 401v10H39v135h529V546L221 145v-10h361V0z"/><glyph glyph-name="zacute" unicode="ź" horiz-adv-x="547" d="M363 560H204v5l111 125h204v-5zM519 0H28v115l201 188 72 60-1 11-71-2H43v131h461V377L294 192l-63-52 1-10 62 1h225V0z"/><glyph glyph-name="Zdotaccent" unicode="Ż" horiz-adv-x="602" d="M376 730H227v132h149V730zM582 0H20v124l344 401v10H39v135h529V546L221 145v-10h361V0z"/><glyph glyph-name="zdotaccent" unicode="ż" horiz-adv-x="547" d="M348 560H199v132h149V560zM519 0H28v115l201 188 72 60-1 11-71-2H43v131h461V377L294 192l-63-52 1-10 62 1h225V0z"/><glyph glyph-name="Zcaron" unicode="Ž" horiz-adv-x="602" d="M350 860h144v-5L390 730H212L109 855v5h144l43-56h11zM582 0H20v124l344 401v10H39v135h529V546L221 145v-10h361V0z"/><glyph glyph-name="zcaron" unicode="ž" horiz-adv-x="547" d="M363 560H185L81 685v5h144l43-56h11l43 56h144v-5zM519 0H28v115l201 188 72 60-1 11-71-2H43v131h461V377L294 192l-63-52 1-10 62 1h225V0z"/><glyph glyph-name="florin" unicode="ƒ" horiz-adv-x="430" d="M-14-170h-55l24 135h38q61 0 81.5 15T104 45l39 223H38l23 134h106l8 47q20 115 89.5 168T464 670h34l-23-135h-38q-61 0-82-15t-30-65l-9-53h135l-24-134H293L255 51q-22-122-83.5-171.5T-14-170z"/><glyph glyph-name="AEacute" unicode="Ǽ" horiz-adv-x="1094" d="M752 730H593v5l111 126h204v-5zM184 0H-2l454 670h604V535H695V404h346V270H695V135h361V0H545v148H280zm352 541L368 283h177v258h-9z"/><glyph glyph-name="aeacute" unicode="ǽ" horiz-adv-x="886" d="M529 560H370v5l111 125h204v-5zM202-10q-82 0-128.5 35T27 129q0 118 158 141l174 26v16q0 41-21 55.5T269 382q-46 0-65.5-15.5T184 313v-11H40v12q0 90 64.5 144.5T275 513q109 0 169-58 67 58 175 58 109 0 172-61t63-161q0-41-6-75H501q3-54 29-75t85-21q87 0 87 44v6h148v-10q0-80-64-125T614-10q-143 0-207 89-64-89-205-89zm407 398q-52 0-76.5-19.5T503 309h208q1 38-25 58.5T609 388zM170 140q0-36 67-36 127 0 127 95l-149-23q-45-7-45-36z"/><glyph glyph-name="Oslashacute" unicode="Ǿ" horiz-adv-x="707" d="M419 730H260v5l111 126h204v-5zM354-10q-123 0-205 65L63-31l-77 74 93 94q-47 85-47 198 0 158 86.5 251.5T354 680q120 0 203-64l86 87 77-74-93-94q48-84 48-200 0-158-86-251.5T354-10zM192 335q0-46 6-79l257 258q-35 21-101 21-89 0-125.5-42.5T192 335zm162-200q89 0 125 42.5T515 335q0 47-6 82L251 158q34-23 103-23z"/><glyph glyph-name="oslashacute" unicode="ǿ" horiz-adv-x="569" d="M357 560H198v5l111 125h204v-5zM286-10q-101 0-169 52L43-25l-55 60 76 69q-36 60-36 147 0 121 68.5 191.5T286 513q101 0 167-52l72 65 55-60-74-68q35-61 35-147 0-120-67.5-190.5T286-10zM176 251q0-18 2-42l174 159q-23 13-66 13-62 0-86-28.5T176 251zm110-129q61 0 85 28t24 101q0 18-2 44L218 135q25-13 68-13z"/><glyph glyph-name="Scommaaccent" unicode="Ș" horiz-adv-x="619" d="M335-10Q47-10 47 218v13h147v-10q0-56 29-75.5T342 126q62 0 84 13.5t22 48.5q0 36-18.5 51T344 265l-118 21Q44 317 44 477q0 85 66.5 144T311 680q137 0 204-63t67-169v-8H434v11q0 53-27 73t-101 20q-63 0-88-14.5T193 483t18-44.5 78-23.5l119-23q189-36 189-199 0-88-64-145.5T335-10zm-64-190H132v5l80 125h187v-5z"/><glyph glyph-name="scommaaccent" unicode="ș" horiz-adv-x="505" d="M267-10Q32-10 32 171v3h143v-21q0-27 19.5-36t75.5-9q44 0 57.5 7t13.5 27-15 28-66 17l-76 14q-77 14-115 49.5T31 354q0 72 57 115.5T250 513q96 0 156.5-44.5T467 342v-14H324v14q0 27-16 39t-62 12q-43 0-58.5-9T172 356q0-18 12.5-26t56.5-17l92-19q79-15 114.5-51.5T483 144q0-71-56.5-112.5T267-10zm-52-190H76v5l80 125h187v-5z"/><glyph glyph-name="Tcommaaccent" unicode="Ț" horiz-adv-x="586" d="M368 0H218v535H2v135h582V535H368V0zM251-200H112v5l80 125h187v-5z"/><glyph glyph-name="tcommaaccent" unicode="ț" horiz-adv-x="400" d="M278-2Q178-2 131 37.5T84 165v214H4v124h84l28 117h118V503h142V379H234V182q0-32 15-40.5t65-8.5h62V8Q328-2 278-2zM176-200H37v5l80 125h187v-5z"/><glyph glyph-name="dotlessj" unicode="ȷ" horiz-adv-x="244" d="M-49-168v126h40q37 0 47 8T48 2v501h150V25q0-108-52-151.5T-6-170q-17 0-43 2z"/><glyph glyph-name="circumflex" unicode="ˆ" horiz-adv-x="600" d="M237 560H93v5l104 125h178l103-125v-5H334l-43 56h-11z"/><glyph glyph-name="caron" unicode="ˇ" horiz-adv-x="600" d="M375 560H197L93 685v5h144l43-56h11l43 56h144v-5z"/><glyph glyph-name="breve" unicode="˘" horiz-adv-x="600" d="M282 550q-68 0-109.5 34.5T131 677v14h105v-10q0-23 9.5-31.5T282 641t36 8 9 32v10h105v-14q0-58-41-92.5T282 550z"/><glyph glyph-name="dotaccent" unicode="˙" horiz-adv-x="600" d="M342 560H193v132h149V560z"/><glyph glyph-name="ring" unicode="˚" horiz-adv-x="600" d="M270 544q-46 0-74 24t-28 64 28 64 74 24 74-24 28-64-28-64-74-24zm0 61q22 0 30 5.5t8 21.5-8 21.5-30 5.5-30-5.5-8-21.5 8-21.5 30-5.5z"/><glyph glyph-name="ogonek" unicode="˛" horiz-adv-x="600" d="M364-187h-94q-96 0-96 68 0 40 47 91l25 28h99l-44-56q-13-14-13-27 0-14 23-14h53v-90z"/><glyph glyph-name="tilde" unicode="˜" horiz-adv-x="600" d="M211 558H111v39q0 106 86 106 23 0 66-17l48-21q25-11 37-11 16 0 16 21v19h100v-47q0-42-19-70t-63-28q-28 0-78 20l-51 22q-24 8-28 8-14 0-14-19v-22z"/><glyph glyph-name="hungarumlaut" unicode="˝" horiz-adv-x="600" d="M208 560H80v5l66 125h170v-5zm206 0H286v5l66 125h170v-5z"/><glyph glyph-name="gravecomb" unicode="̀" horiz-adv-x="568" d="M423 560H264L108 685v5h204l111-125v-5z"/><glyph glyph-name="acutecomb" unicode="́" horiz-adv-x="568" d="M307 560H148v5l111 125h204v-5z"/><glyph glyph-name="circumflexcomb" unicode="̂" horiz-adv-x="572" d="M237 560H93v5l104 125h178l103-125v-5H334l-43 56h-11z"/><glyph glyph-name="tildecomb" unicode="̃" horiz-adv-x="576" d="M211 558H111v39q0 106 86 106 23 0 66-17l48-21q25-11 37-11 16 0 16 21v19h100v-47q0-42-19-70t-63-28q-28 0-78 20l-51 22q-24 8-28 8-14 0-14-19v-22z"/><glyph glyph-name="macroncomb" unicode="̄" horiz-adv-x="564" d="M436 572H129v105h307V572z"/><glyph glyph-name="brevecomb" unicode="̆" horiz-adv-x="563" d="M282 550q-68 0-109.5 34.5T131 677v14h105v-10q0-23 9.5-31.5T282 641t36 8 9 32v10h105v-14q0-58-41-92.5T282 550z"/><glyph glyph-name="dotaccentcomb" unicode="̇" horiz-adv-x="535" d="M342 560H193v132h149V560z"/><glyph glyph-name="dieresiscomb" unicode="̈" horiz-adv-x="576" d="M466 560H318v132h148V560zm-208 0H111v132h147V560z"/><glyph glyph-name="ringcomb" unicode="̊" horiz-adv-x="540" d="M270 544q-46 0-74 24t-28 64 28 64 74 24 74-24 28-64-28-64-74-24zm0 61q22 0 30 5.5t8 21.5-8 21.5-30 5.5-30-5.5-8-21.5 8-21.5 30-5.5z"/><glyph glyph-name="hungarumlautcomb" unicode="̋" horiz-adv-x="597" d="M208 560H80v5l66 125h170v-5zm206 0H286v5l66 125h170v-5z"/><glyph glyph-name="caroncomb" unicode="̌" horiz-adv-x="572" d="M375 560H197L93 685v5h144l43-56h11l43 56h144v-5z"/><glyph glyph-name="commaturnedabovecomb" unicode="̒" horiz-adv-x="600" d="M314 690h139v-5l-80-125H185v5z"/><glyph glyph-name="commaaccentcomb" unicode="̦" horiz-adv-x="562" d="M276-200H137v5l80 125h187v-5z"/><glyph glyph-name="cedillacomb" unicode="̧" horiz-adv-x="553" d="M278-229H176v79h100q28 0 28 18 0 11-6 14.5t-22 3.5h-76V3h79v-46h5q51 0 79.5-24.5T392-134q0-44-30-69.5T278-229z"/><glyph glyph-name="ogonekcomb" unicode="̨" horiz-adv-x="539" d="M364-187h-94q-96 0-96 68 0 40 47 91l25 28h99l-44-56q-13-14-13-27 0-14 23-14h53v-90z"/><glyph glyph-name="strokeshortcomb" unicode="̵" horiz-adv-x="605" d="M492 496H72v111h420V496z"/><glyph glyph-name="strokelongcomb" unicode="̶" horiz-adv-x="625" d="M682 472H-58v130h740V472z"/><glyph glyph-name="slashshortcomb" unicode="̷" horiz-adv-x="553" d="M465 424 130 265l-42 86 335 159z"/><glyph glyph-name="slashlongcomb" unicode="̸" horiz-adv-x="596" d="M594 466 57-25 2 35l537 491z"/><glyph glyph-name="Omega" unicode="Ω" horiz-adv-x="739" d="M337 0H39v135h89q-96 66-96 216 0 127 90.5 213T370 650t247.5-86T708 351q0-150-97-216h90V0H403v135h16q74 3 101 51t27 133q0 99-43.5 142.5T370 505q-89 0-133.5-44T192 319q0-85 27.5-133.5T322 135h15V0z"/><glyph glyph-name="pi" unicode="π" horiz-adv-x="716" d="M116 0v379H4v124h666V379H550V178q0-32 15-40.5t65-8.5h40V4Q633-6 594-6 494-6 447 33.5T400 161v218H266V0H116z"/><glyph glyph-name="Wgrave" unicode="Ẁ" horiz-adv-x="986" d="M568 730H409L253 856v5h204l111-126v-5zM363 0H143L8 670h174l51-302 24-221h11l41 221 79 302h213l79-300 42-223h11l24 223 51 300h170L843 0H624l-81 297-45 212h-10l-45-212z"/><glyph glyph-name="wgrave" unicode="ẁ" horiz-adv-x="834" d="M511 560H352L196 685v5h204l111-125v-5zM321 0H125L8 503h165l33-232 19-151h11l28 151 61 232h191l62-233 27-150h10l18 150 35 233h158L709 0H513l-65 239-25 132h-11l-25-132z"/><glyph glyph-name="Wacute" unicode="Ẃ" horiz-adv-x="986" d="M583 730H424v5l111 126h204v-5zM363 0H143L8 670h174l51-302 24-221h11l41 221 79 302h213l79-300 42-223h11l24 223 51 300h170L843 0H624l-81 297-45 212h-10l-45-212z"/><glyph glyph-name="wacute" unicode="ẃ" horiz-adv-x="834" d="M507 560H348v5l111 125h204v-5zM321 0H125L8 503h165l33-232 19-151h11l28 151 61 232h191l62-233 27-150h10l18 150 35 233h158L709 0H513l-65 239-25 132h-11l-25-132z"/><glyph glyph-name="Wdieresis" unicode="Ẅ" horiz-adv-x="986" d="M670 730H523v132h147V730zm-207 0H316v132h147V730zM363 0H143L8 670h174l51-302 24-221h11l41 221 79 302h213l79-300 42-223h11l24 223 51 300h170L843 0H624l-81 297-45 212h-10l-45-212z"/><glyph glyph-name="wdieresis" unicode="ẅ" horiz-adv-x="834" d="M595 560H447v132h148V560zm-208 0H240v132h147V560zM321 0H125L8 503h165l33-232 19-151h11l28 151 61 232h191l62-233 27-150h10l18 150 35 233h158L709 0H513l-65 239-25 132h-11l-25-132z"/><glyph glyph-name="Etilde" unicode="Ẽ" horiz-adv-x="596" d="M226 727H126v39q0 107 86 107 25 0 66-18l48-20q27-12 37-12 16 0 16 22v18h100v-46q0-43-19-71t-63-28q-25 0-78 21l-51 21q-22 9-28 9-14 0-14-20v-22zM558 0H47v670h511V535H197V404h346V270H197V135h361V0z"/><glyph glyph-name="etilde" unicode="ẽ" horiz-adv-x="553" d="M199 558H99v39q0 106 86 106 23 0 66-17l48-21q25-11 37-11 16 0 16 21v19h100v-47q0-42-19-70t-63-28q-28 0-78 20l-51 22q-24 8-28 8-14 0-14-19v-22zm81-568Q154-10 91 58.5T28 250q0 121 68 192t185 71q112 0 176-60.5T521 292q0-34-7-74H169q2-53 27-75.5t86-22.5q86 0 86 44v6h148v-10q0-80-63.5-125T280-10zm-4 400q-52 0-76.5-20T170 309h207q2 39-23.5 60T276 390z"/><glyph glyph-name="Ygrave" unicode="Ỳ" horiz-adv-x="668" d="M409 730H250L94 856v5h204l111-126v-5zm0-730H259v242L-2 670h170l105-176 58-99h10l57 99 105 176h167L409 242V0z"/><glyph glyph-name="ygrave" unicode="ỳ" horiz-adv-x="579" d="M383 560H224L68 685v5h204l111-125v-5zM151-170q-46 0-92 11v124h84q30 0 43 7t24 30l9 19L8 503h167l82-210 36-97h11l31 97 71 210h167L349-35q-32-76-77-105.5T151-170z"/><glyph glyph-name="Ytilde" unicode="Ỹ" horiz-adv-x="668" d="M257 727H157v39q0 107 86 107 25 0 66-18l48-20q27-12 37-12 16 0 16 22v18h100v-46q0-43-19-71t-63-28q-26 0-78 21l-51 21q-22 9-28 9-14 0-14-20v-22zM409 0H259v242L-2 670h170l105-176 58-99h10l57 99 105 176h167L409 242V0z"/><glyph glyph-name="ytilde" unicode="ỹ" horiz-adv-x="579" d="M212 558H112v39q0 106 86 106 23 0 66-17l48-21q25-11 37-11 16 0 16 21v19h100v-47q0-42-19-70t-63-28q-28 0-78 20l-51 22q-24 8-28 8-14 0-14-19v-22zm-61-728q-46 0-92 11v124h84q30 0 43 7t24 30l9 19L8 503h167l82-210 36-97h11l31 97 71 210h167L349-35q-32-76-77-105.5T151-170z"/><glyph glyph-name="endash" unicode="–" horiz-adv-x="537" d="M525 231H12v128h513V231z"/><glyph glyph-name="emdash" unicode="—" horiz-adv-x="954" d="M942 231H12v128h930V231z"/><glyph glyph-name="quoteleft" unicode="‘" horiz-adv-x="252" d="M160 670h50v-98h-46q-16 0-23-6.5t-7-25.5v-18h80V345H26v193q0 132 134 132z"/><glyph glyph-name="quoteright" unicode="’" horiz-adv-x="252" d="M84 345H34v98h46q16 0 23 6.5t7 25.5v18H30v177h188V477q0-132-134-132z"/><glyph glyph-name="quotesinglbase" unicode="‚" horiz-adv-x="236" d="M86-148H36v98h46q16 0 23 6.5t7 25.5V0H32v177h188V-16q0-132-134-132z"/><glyph glyph-name="quotedblleft" unicode="“" horiz-adv-x="499" d="M160 670h50v-98h-46q-16 0-23-6.5t-7-25.5v-18h80V345H26v193q0 132 134 132zm239 0h50v-98h-46q-16 0-23-6.5t-7-25.5v-18h80V345H265v193q0 132 134 132z"/><glyph glyph-name="quotedblright" unicode="”" horiz-adv-x="499" d="M338 345h-50v98h46q16 0 23 6.5t7 25.5v18h-80v177h188V477q0-132-134-132zm-238 0H50v98h46q16 0 23 6.5t7 25.5v18H46v177h188V477q0-132-134-132z"/><glyph glyph-name="quotedblbase" unicode="„" horiz-adv-x="475" d="M86-148H36v98h46q16 0 23 6.5t7 25.5V0H32v177h188V-16q0-132-134-132zm239 0h-50v98h46q16 0 23 6.5t7 25.5V0h-80v177h188V-16q0-132-134-132z"/><glyph glyph-name="dagger" unicode="†" horiz-adv-x="450" d="M299 0H150v379H8v124h142v167h149V503h143V379H299V0z"/><glyph glyph-name="daggerdbl" unicode="‡" horiz-adv-x="450" d="M299 0H150v167H8v124h142v88H8v124h142v167h149V503h143V379H299v-88h143V167H299V0z"/><glyph glyph-name="bullet" unicode="•" horiz-adv-x="393" d="M197 190q-62 0-103.5 39.5T52 335t41.5 105.5T197 480q61 0 103-39.5T342 335t-42-105.5T197 190z"/><glyph glyph-name="ellipsis" unicode="…" horiz-adv-x="766" d="M228 0H40v177h188V0zm249 0H289v177h188V0zm249 0H538v177h188V0z"/><glyph glyph-name="perthousand" unicode="‰" horiz-adv-x="1179" d="M194 348q-81 0-128.5 44.5T18 514t47.5 121.5T194 680t128-44.5T369 514t-47-121.5T194 348zM223 0H86l483 670h136zm-29 450q36 0 49.5 13t13.5 51-13.5 51-49.5 13-49.5-13-13.5-51 13.5-51 49.5-13zM985-10q-81 0-128.5 44.5T809 156t47.5 121.5T985 322t128.5-44.5T1161 156t-47.5-121.5T985-10zm-387 0q-81 0-128.5 44.5T422 156t47.5 121.5T598 322t128-44.5T773 156 726 34.5 598-10zM985 92q36 0 49.5 13t13.5 51-13.5 51-49.5 13-49.5-13-13.5-51 13.5-51T985 92zm-387 0q36 0 49.5 13t13.5 51-13.5 51-49.5 13-49.5-13-13.5-51 13.5-51T598 92z"/><glyph glyph-name="guilsinglleft" unicode="‹" horiz-adv-x="260" d="m30 388 200 134V369l-99-59v-10l99-59V88L30 222v166z"/><glyph glyph-name="guilsinglright" unicode="›" horiz-adv-x="260" d="M230 222 30 88v153l99 59v10l-99 59v153l200-134V222z"/><glyph glyph-name="fraction" unicode="⁄" horiz-adv-x="249" d="M-48 0h-137l483 670h136z"/><glyph glyph-name="zero.superior" unicode="⁰" horiz-adv-x="386" d="M193 325q-80 0-127.5 47.5T18 502t47.5 130T193 680t127.5-48T368 502t-47.5-129.5T193 325zm0 102q37 0 49.5 15t12.5 60q0 46-12.5 61T193 578t-49.5-15-12.5-61q0-45 12.5-60t49.5-15z"/><glyph glyph-name="four.superior" unicode="⁴" horiz-adv-x="379" d="M313 335H207v65H18v83l177 187h118V494h48v-94h-48v-65zM129 494h78v79h-6l-72-74v-5z"/><glyph glyph-name="Euro" unicode="€" horiz-adv-x="732" d="M395-10q-118 0-197 59T90 213H10v96h65q-1 8-1 26t1 26H10v96h80q29 105 108 164t197 59q147 0 226-72t79-198v-5H540v8q0 69-33 96.5T394 537q-60 0-95-18t-51-62h211v-96H232v-52h227v-96H248q16-44 51-62t95-18q80 0 113 27.5t33 96.5v8h160v-5q0-126-79-198T395-10z"/><glyph glyph-name="indianrupee" unicode="₹" horiz-adv-x="583" d="M532 0H352L212 165q-27 33-54.5 47T81 226H28v126h180q37 0 56.5 9.5T291 394H28v118h268v39H28v119h529V551H446v-39h111V394H441q-27-123-165-124v-5q38-14 67.5-41t67.5-73z"/><glyph glyph-name="trademark" unicode="™" horiz-adv-x="565" d="M340 469h-65v201h89l46-125h3l44 125h90V469h-65v67l2 38h-4l-32-93h-75l-33 93h-3l3-38v-67zm-174 0H95v135H18v66h225v-66h-77V469z"/><glyph glyph-name="Ohm" unicode="Ω" horiz-adv-x="739" d="M337 0H39v135h89q-96 66-96 216 0 127 90.5 213T370 650t247.5-86T708 351q0-150-97-216h90V0H403v135h16q74 3 101 51t27 133q0 99-43.5 142.5T370 505q-89 0-133.5-44T192 319q0-85 27.5-133.5T322 135h15V0z"/><glyph glyph-name="estimated" unicode="℮" horiz-adv-x="726" d="M374-10q-173 0-263.5 91T20 335q0 159 90 252t255 93q178 0 262.5-101T706 294H248V156q45-21 130-21 65 0 109 24.5t44 76.5h160q0-108-88-177T374-10zM248 514v-90h230v90q-49 21-113 21-68 0-117-21z"/><glyph glyph-name="partialdiff" unicode="∂" horiz-adv-x="663" d="M277-10Q158-10 96.5 39.5T35 186q0 100 71.5 164T296 414q134 0 170-80h5q15 53 15 103 0 46-30 72t-89 26H213v145h162q261 0 261-238 0-203-92.5-327.5T277-10zm20 144q70 0 105.5 20.5T438 225q0 38-25.5 53T325 293q-71 0-106-20.5T184 198q0-35 25.5-49.5T297 134z"/><glyph glyph-name="product" unicode="∏" horiz-adv-x="686" d="M213-125H63v795h556v-795H469v660H213v-660z"/><glyph glyph-name="summation" unicode="∑" horiz-adv-x="547" d="M536-125H51V1l162 153 116 113v10L208 391 51 544v126h485V539H317l-71 2v-10l40-30 173-171V215L286 45l-40-30V4l71 3h219v-132z"/><glyph glyph-name="minus" unicode="−" horiz-adv-x="500" d="M476 273H29v124h447V273z"/><glyph glyph-name="radical" unicode="√" horiz-adv-x="776" d="M577 0H387L243 372 79 280 8 400l184 103h167l120-359h11l176 526h164z"/><glyph glyph-name="infinity" unicode="∞" horiz-adv-x="768" d="M229 123q-88 0-139.5 56T38 335t51.5 156T229 547q54 0 92-26t49-71q53 97 171 97 88 0 139.5-56T732 335t-51.5-156T541 123q-55 0-92.5 26.5T400 222q-55-99-171-99zm296 296q-33 0-51.5-25.5T438 316q10-65 78-65 74 0 74 84t-65 84zm-345-84q0-84 66-84 23 0 40 16t25.5 35 20.5 54q-12 63-78 63-74 0-74-84z"/><glyph glyph-name="integral" unicode="∫" horiz-adv-x="348" d="M0-166v113h37q29 0 42.5 10T93-8v486q0 92 54.5 143T308 672q19 0 27-2V558h-37q-28 0-41.5-10.5T243 512V27q0-92-54.5-143.5T28-168q-10 0-28 2z"/><glyph glyph-name="approxequal" unicode="≈" horiz-adv-x="545" d="M154 157H28v62q0 79 55 107v4H28v53q0 135 120 135 37 0 84-18l71-27q48-16 66-16 23 0 23 23v29h125v-60q0-84-56-109v-4h56v-56q0-130-107-130-45 0-116 26l-66 24q-28 10-46 10-28 0-28-27v-26zm232 119q28 0 28 28v21q-2 0-4-1h-3q-39 0-111 28l-72 25q-33 14-55 14-36 0-36-32v-16h12q41 0 82-16l81-31q58-20 78-20z"/><glyph glyph-name="notequal" unicode="≠" horiz-adv-x="516" d="M487 151H217L155 36 60 85l36 66H40v123h122l66 122H40v123h254l64 118 95-49-37-69h71V396H349l-66-122h204V151z"/><glyph glyph-name="lessequal" unicode="≤" horiz-adv-x="506" d="M477 14H30v124h314v11L30 246v178l447 141V425l-312-85v-10l312-85V14z"/><glyph glyph-name="greaterequal" unicode="≥" horiz-adv-x="506" d="M476 14H29v231l312 85v10L29 425v140l447-141V246l-314-97v-11h314V14z"/><glyph glyph-name="lozenge" unicode="◊" horiz-adv-x="586" d="M289 82h11l94 207-94 207h-11l-94-207zm99-126H197L28 289l169 333h191l170-333z"/><glyph glyph-name="t_t" horiz-adv-x="722" d="M255-2q-88 0-131.5 39.5T80 165v214H8v124h76l28 117h118V503h177l28 117h118V503h142V379H553V182q0-32 15-40.5t65-8.5h62V8Q647-2 597-2 497-2 450 37.5T403 165v214H230V182q0-33 15-41t71-8h38V8Q306-2 255-2z"/><glyph glyph-name="tcaron_t" horiz-adv-x="722" d="M306 529h-47v89h43q15 0 21 5.5t6 22.5v16h-76v156h173V648q0-119-120-119zM255-2q-88 0-131.5 39.5T80 165v214H8v124h76l28 117h118V503h177l28 117h118V503h142V379H553V182q0-32 15-40.5t65-8.5h62V8Q647-2 597-2 497-2 450 37.5T403 165v214H230V182q0-33 15-41t71-8h38V8Q306-2 255-2z"/><glyph glyph-name="IJacute" horiz-adv-x="816" d="M212 730H53v5l111 126h204v-5zm571 0H624v5l111 126h204v-5zM197 0H47v670h150V0zm314-10q-142 0-206.5 68.5T240 257v20h159v-27q0-68 19.5-91.5T506 135q67 0 86.5 23.5T612 250v420h160V263q0-273-261-273z"/><glyph glyph-name="idotaccent" horiz-adv-x="228" d="M187 560H40l-2 110h149V560zm3-560H40v503h150V0z"/><glyph glyph-name="ijacute" horiz-adv-x="490" d="M202 560H43v5l111 125h204v-5zm256 0H299v5l111 125h204v-5zM188 0H38v503h150V0zm9-168v126h40q37 0 47 8t10 36v501h150V25q0-108-52-151.5T240-170q-17 0-43 2z"/><glyph glyph-name="acutecomb.case" horiz-adv-x="568" d="M308 730H149v5l111 126h204v-5z"/><glyph glyph-name="brevecomb.case" horiz-adv-x="563" d="M282 720q-68 0-109.5 34.5T131 847v14h105v-10q0-23 9.5-31.5T282 811t36 8 9 32v10h105v-14q0-58-41-92.5T282 720z"/><glyph glyph-name="caroncomb.alt" horiz-adv-x="581" d="M257 381h-47v89h43q15 0 21 5.5t6 22.5v16h-76v156h173V500q0-119-120-119z"/><glyph glyph-name="caroncomb.alt.case" horiz-adv-x="600" d="M267 381h-48v89h43q15 0 21 5.5t6 22.5v16h-76v156h174V500q0-119-120-119z"/><glyph glyph-name="caroncomb.case" horiz-adv-x="574" d="M337 860h144v-5L377 730H199L96 855v5h144l43-56h11z"/><glyph glyph-name="cedillacomb.case" horiz-adv-x="553" d="M278-229H176v79h100q28 0 28 18 0 11-6 14.5t-22 3.5h-76V3h79v-46h5q51 0 79.5-24.5T392-134q0-44-30-69.5T278-229z"/><glyph glyph-name="circumflexcomb.case" horiz-adv-x="574" d="M237 730H93v5l104 125h178l103-125v-5H334l-43 56h-11z"/><glyph glyph-name="commaaccentcomb.case" horiz-adv-x="562" d="M265-200H126v5l80 125h187v-5z"/><glyph glyph-name="dieresiscomb.case" horiz-adv-x="576" d="M461 730H314v132h147V730zm-207 0H107v132h147V730z"/><glyph glyph-name="dotaccentcomb.case" horiz-adv-x="535" d="M342 730H193v132h149V730z"/><glyph glyph-name="gravecomb.case" horiz-adv-x="562" d="M421 730H262L106 856v5h204l111-126v-5z"/><glyph glyph-name="hungarumlautcomb.case" horiz-adv-x="597" d="M413 730H285v5l67 126h169v-5zm-205 0H79v5l67 126h170v-5z"/><glyph glyph-name="macroncomb.case" horiz-adv-x="564" d="M436 743H129v104h307V743z"/><glyph glyph-name="ogonekcomb.case" horiz-adv-x="539" d="M364-187h-94q-96 0-96 68 0 40 47 91l25 28h99l-44-56q-13-14-13-27 0-14 23-14h53v-90z"/><glyph glyph-name="ringcomb.case" horiz-adv-x="540" d="M270 714q-46 0-74 24t-28 64 28 64 74 24 74-24 28-64-28-64-74-24zm0 61q22 0 30 5.5t8 21.5-8 21.5-30 5.5-30-5.5-8-21.5 8-21.5 30-5.5z"/><glyph glyph-name="slashlongcomb.case" horiz-adv-x="623" d="M678 629 21-31l-77 74 657 660z"/><glyph glyph-name="slashshortcomb.case" horiz-adv-x="602" d="M476 370 82 208v140l394 162V370z"/><glyph glyph-name="strokeshortcomb.case" horiz-adv-x="600" d="M543 263H58v135h485V263z"/><glyph glyph-name="tildecomb.case" horiz-adv-x="576" d="M211 727H111v39q0 107 86 107 25 0 66-18l48-20q27-12 37-12 16 0 16 22v18h100v-46q0-43-19-71t-63-28q-25 0-78 21l-51 21q-22 9-28 9-14 0-14-20v-22z"/><glyph glyph-name="d.component" horiz-adv-x="631" d="M247-10Q142-10 85.5 51.5T29 220t55 169 157 62q55 0 94.5-21.5T393 375h6v295h150V0H410v73h-6q-40-83-157-83zm-68 230q0-54 23.5-78.5T289 117q55 0 82.5 21t27.5 68v29q0 47-27.5 68T289 324q-63 0-86.5-25T179 220z"/><glyph glyph-name="h.component" horiz-adv-x="628" d="M232 0H82v670h150V363h5q23 39 64.5 63.5T399 451q93 0 138.5-54T583 257V0H433v227q0 53-21.5 74T334 322q-55 0-78.5-22T232 222V0z"/><glyph glyph-name="ITF" horiz-adv-x="1719" d="M100 0v700h216V0H100zm261 496v204h216V496H361zM621 0v700h217V0H621zm261 496v204h216V496H882zM1142 0v700h217V0h-217zm261 496v204h216V496h-216zm0-249v205h216V247h-216z"/></font>
</defs>
</svg>
