<svg width="80" height="80" fill="none" xmlns="http://www.w3.org/2000/svg"><path d="M48.594 7.969c.2.18.395.366.586.556.687.657 1.409.73 2.32.894 1.728.366 3.154 1.705 4.096 3.15.47.788.888 1.6 1.279 2.431l.352-.078c.503-.067.997-.126 1.504-.156l.457-.035c.77.174 1.198.662 1.75 1.207l.343.336c.35.348.697.698 1.043 1.05l.702.712.308.313c.472.444.855.435 1.487.474l.559.037 1.165.072c2.354.157 2.354.157 2.993.728.462.75.525 1.511.647 2.375l.096.63c.074.49.146.982.218 1.474.14.963.285 1.925.43 2.887a2813.004 2813.004 0 0 1 1.307 8.815 18019.277 18019.277 0 0 1 .944 6.4l.107.73.054.365c.29 1.965.58 3.93.872 5.896.3 2.028.6 4.056.898 6.085l.503 3.404a1803.676 1803.676 0 0 1 .644 4.36c.08.533.157 1.065.235 1.598l.07.464c.29 2.014.29 2.014.156 2.826-.388.493-.753.576-1.359.707l-.56.124-.612.13-.642.14c-.577.127-1.154.25-1.731.374l-1.8.39-2.946.636c-1.248.268-2.495.54-3.741.814-.699.154-1.398.306-2.097.458l-1.128.247-1.565.34-.459.101-.428.091-.365.08c-.96.13-1.851.049-2.799-.131l-.326-.06-1.069-.205a932.15 932.15 0 0 1-2.868-.544l-2.219-.42c-1.408-.266-2.816-.534-4.224-.802l-4.718-.895-1.386-.262-4.075-.772-2.176-.411a514.467 514.467 0 0 1-5.542-1.075c-3.206-.637-6.236-1.138-9.517-1.067-.511.005-1.023.009-1.535.01-.308 0-.617.004-.926.011-.99.01-.99.01-1.499-.242-.22-.267-.22-.267-.278-.824.059-.537.059-.537.371-.85.305-.037.305-.037.68-.035h.427l.462.005.471.001c.499.002.997.006 1.495.01l1.012.004c.828.004 1.656.009 2.484.016l.02-.429c.098-1.828.314-3.631.55-5.446l.129-.996.346-2.683.364-2.818.611-4.726.705-5.458a9347.372 9347.372 0 0 1 1.308-10.13l.125-.963.17-1.318.05-.383c.336-2.546.336-2.546 1.091-3.4.796-.49 1.669-.79 2.557-1.063l.36-.112.747-.232a612.192 612.192 0 0 1 1.872-.583l.346-.108c.8-.246.8-.246 1.15-.246l.069-.317c.939-4.02 2.655-7.978 5.399-11.09l.265-.332c2.268-2.8 7.368-5.398 10.829-3.261Zm-7.374 5.49c-1.611 1.663-2.692 3.754-3.632 5.848l-.162.36c-.252.577-.463 1.111-.551 1.74a208.863 208.863 0 0 0 1.389-.336c.651-.178.651-.178 1.267-.446.186-.328.186-.328.272-.729l.122-.45.124-.481c.73-2.605 1.884-5.053 3.701-7.09-.857 0-1.902 1.024-2.53 1.583Zm5.557 1.404c-.912.925-1.5 1.957-2.09 3.106l-.19.348c-.154.298-.154.298-.122.745 1.291-.249 2.51-.665 3.75-1.093.033-1.293.012-2.494-.313-3.75-.495 0-.685.308-1.035.644Zm5.254-.332.157 2.188.78-.313c-.09-.743-.398-1.245-.78-1.875h-.157Zm4.626 2.618-.44.139a1286.278 1286.278 0 0 1-2.434.774l-2.093.663c-1.546.49-3.095.973-4.644 1.456l-1.863.582-.864.27c-.628.196-1.256.392-1.883.59-1.162.364-2.325.72-3.492 1.07a427.984 427.984 0 0 0-7.352 2.287l-.481.154-.471.15c-.152.05-.304.098-.46.148-.294.094-.587.189-.88.285-.597.194-1.19.385-1.797.547l-.513.143-.421.107c-.48.308-.515.768-.631 1.299-.085.484-.149.97-.21 1.458l-.057.436-.185 1.44-.134 1.034-.361 2.805-.379 2.937-.675 5.248-.612 4.755a9734.263 9734.263 0 0 0-1.442 11.198l-.13 1.009-.177 1.377-.053.403c-.09.718-.178 1.425-.117 2.15.478.318.741.391 1.295.495l.52.1.572.105.605.114 1.651.31c.585.109 1.17.22 1.754.33l3.376.633 2.709.507.386.072.77.145 4.963.93c2.604.487 5.207.977 7.808 1.477.823.158 1.647.314 2.47.471.716.137 1.43.275 2.146.414.525.102 1.05.2 1.576.3l.537.107.495.092.416.08c1.287.096 2.55-.204 3.8-.482l.509-.11c.55-.12 1.099-.242 1.648-.364l1.15-.251 2.706-.594c1.128-.249 2.257-.496 3.386-.744 2.011-.44 4.023-.882 6.034-1.325.032-1.055-.093-2.054-.25-3.097l-.08-.556-.225-1.52-.242-1.642-.419-2.843-.606-4.11c-.326-2.223-.654-4.446-.982-6.669l-.955-6.477-.06-.403-.295-2.004c-.815-5.54-1.632-11.078-2.449-16.617l-.37-.026-1.671-.12-.582-.041c-2.755-.2-2.755-.2-3.584-1.117l-.24-.251c-.253-.264-.502-.53-.75-.798a95.478 95.478 0 0 0-.992-1.05c-.11-.123-.11-.123-.224-.247-.348-.364-.581-.556-1.081-.646-.683.105-1.318.296-1.974.508Z" fill="#323539"/><path d="M50.313 30.156c.312.313.312.313.325.596-.114.931-.343 1.786-.641 2.674l-.142.43-.298.895c-.153.455-.302.911-.45 1.367l-.292.872-.133.412c-.233.682-.418 1.223-1.026 1.66-.88 0-1.683-.34-2.505-.634-1.345-.426-3.175-.644-4.487-.04-.512.365-.77.552-.977 1.143-.031.559.029.916.36 1.376.767.819 1.687 1.456 2.586 2.118 2.37 1.757 4.673 3.903 5.287 6.924.426 3.202.154 6.585-1.826 9.27-1.73 2.165-3.782 3.528-6.563 3.906-3.639.282-7.257-.576-10.156-2.871-1.169-1.033-1.169-1.033-1.563-1.66 0-.318 0-.318.085-.67l.1-.416.128-.477.15-.558c.14-.514.288-1.026.44-1.537.094-.32.186-.64.277-.961.06-.205.12-.41.182-.615l.162-.557c.21-.493.352-.678.82-.928.752.021 1.162.27 1.739.732 1.37 1.041 3.031 2.035 4.804 1.982.378-.044.378-.044.81-.36.417-.659.47-1.127.303-1.885-.565-1.415-1.98-2.35-3.124-3.282-1.892-1.547-3.2-3.33-3.594-5.78-.304-3.448.358-6.699 2.51-9.464.202-.233.407-.465.615-.693l.245-.288c3.431-3.784 11.376-5.375 15.849-2.68Zm-13.594 3.282-.335.257c-1.886 1.534-3.06 3.923-3.415 6.305-.206 2.157-.104 4.215 1.303 5.966.614.672 1.277 1.292 1.949 1.905l.248.228c.46.42.925.828 1.402 1.227 1.025.893 1.731 1.848 1.869 3.231.023 2.108.023 2.108-.678 2.912-1.13.905-2.172 1.05-3.593.937-1.41-.27-2.572-.885-3.781-1.623-.399-.278-.399-.278-.75-.252l-.46 1.358-.131.386c-.206.613-.4 1.21-.503 1.85 2.615 2.364 5.734 3.27 9.213 3.146 2.034-.136 3.802-1.214 5.162-2.677 1.68-2.063 2.203-4.767 1.99-7.37-.544-3.514-3.102-5.517-5.79-7.514-1.256-.935-2.355-1.783-2.67-3.413-.049-1.024.257-2.003.913-2.777 1.575-1.306 3.25-1.442 5.244-1.27.741.104 1.465.278 2.188.469l.625.156a923.29 923.29 0 0 0 .984-2.828 339.96 339.96 0 0 0 .472-1.357c.155-.45.263-.804.263-1.284-3.942-1.096-8.474-.581-11.72 2.032ZM5.615 64.004l.571-.012.547-.002.502-.003c.421.075.421.075.714.362.176.338.176.338.166.827-.146.449-.146.449-.418.63-.667.248-1.37.183-2.072.18l-.472.008h-.456l-.414.002c-.46-.071-.674-.2-1.002-.527-.058-.557-.058-.557 0-1.094.58-.58 1.55-.37 2.334-.371Z" fill="#323539"/><path d="m10.156 63.994.41-.009c.371.078.371.078.655.37.185.332.185.332.175.733-.188.49-.288.632-.771.85-.484.013-.942-.015-1.406-.157-.337-.505-.386-.664-.313-1.25.363-.489.656-.536 1.25-.537Z" fill="#33363A"/></svg>